G04 (created by PCBNEW (2013-07-07 BZR 4022)-stable) date 1/28/2014 11:43:37 AM*
%MOIN*%
G04 Gerber Fmt 3.4, Leading zero omitted, Abs format*
%FSLAX34Y34*%
G01*
G70*
G90*
G04 APERTURE LIST*
%ADD10C,0.00590551*%
%ADD11C,0.003*%
%ADD12C,0.005*%
%ADD13C,0.0039*%
%ADD14C,0.012*%
%ADD15C,0.0001*%
%ADD16C,0.006*%
%ADD17C,0.0043*%
%ADD18C,0.0107*%
G04 APERTURE END LIST*
G54D10*
G54D11*
X76064Y-56310D02*
X76092Y-56310D01*
X76107Y-56317D01*
X76121Y-56332D01*
X76128Y-56360D01*
X76128Y-56410D01*
X76121Y-56439D01*
X76107Y-56453D01*
X76092Y-56460D01*
X76064Y-56460D01*
X76050Y-56453D01*
X76035Y-56439D01*
X76028Y-56410D01*
X76028Y-56360D01*
X76035Y-56332D01*
X76050Y-56317D01*
X76064Y-56310D01*
X76185Y-56453D02*
X76200Y-56460D01*
X76228Y-56460D01*
X76242Y-56453D01*
X76250Y-56439D01*
X76250Y-56432D01*
X76242Y-56417D01*
X76228Y-56410D01*
X76207Y-56410D01*
X76192Y-56403D01*
X76185Y-56389D01*
X76185Y-56382D01*
X76192Y-56367D01*
X76207Y-56360D01*
X76228Y-56360D01*
X76242Y-56367D01*
X76378Y-56453D02*
X76364Y-56460D01*
X76335Y-56460D01*
X76321Y-56453D01*
X76314Y-56446D01*
X76307Y-56432D01*
X76307Y-56389D01*
X76314Y-56375D01*
X76321Y-56367D01*
X76335Y-56360D01*
X76364Y-56360D01*
X76378Y-56367D01*
X76442Y-56460D02*
X76442Y-56360D01*
X76442Y-56310D02*
X76435Y-56317D01*
X76442Y-56325D01*
X76450Y-56317D01*
X76442Y-56310D01*
X76442Y-56325D01*
X76535Y-56460D02*
X76521Y-56453D01*
X76514Y-56439D01*
X76514Y-56310D01*
X76614Y-56460D02*
X76600Y-56453D01*
X76592Y-56439D01*
X76592Y-56310D01*
X76692Y-56460D02*
X76678Y-56453D01*
X76671Y-56446D01*
X76664Y-56432D01*
X76664Y-56389D01*
X76671Y-56375D01*
X76678Y-56367D01*
X76692Y-56360D01*
X76714Y-56360D01*
X76728Y-56367D01*
X76735Y-56375D01*
X76742Y-56389D01*
X76742Y-56432D01*
X76735Y-56446D01*
X76728Y-56453D01*
X76714Y-56460D01*
X76692Y-56460D01*
X76799Y-56453D02*
X76814Y-56460D01*
X76842Y-56460D01*
X76857Y-56453D01*
X76864Y-56439D01*
X76864Y-56432D01*
X76857Y-56417D01*
X76842Y-56410D01*
X76821Y-56410D01*
X76807Y-56403D01*
X76799Y-56389D01*
X76799Y-56382D01*
X76807Y-56367D01*
X76821Y-56360D01*
X76842Y-56360D01*
X76857Y-56367D01*
X76992Y-56453D02*
X76978Y-56460D01*
X76950Y-56460D01*
X76935Y-56453D01*
X76928Y-56446D01*
X76921Y-56432D01*
X76921Y-56389D01*
X76928Y-56375D01*
X76935Y-56367D01*
X76950Y-56360D01*
X76978Y-56360D01*
X76992Y-56367D01*
X77078Y-56460D02*
X77064Y-56453D01*
X77057Y-56446D01*
X77049Y-56432D01*
X77049Y-56389D01*
X77057Y-56375D01*
X77064Y-56367D01*
X77078Y-56360D01*
X77099Y-56360D01*
X77114Y-56367D01*
X77121Y-56375D01*
X77128Y-56389D01*
X77128Y-56432D01*
X77121Y-56446D01*
X77114Y-56453D01*
X77099Y-56460D01*
X77078Y-56460D01*
X77192Y-56360D02*
X77192Y-56510D01*
X77192Y-56367D02*
X77207Y-56360D01*
X77235Y-56360D01*
X77249Y-56367D01*
X77257Y-56375D01*
X77264Y-56389D01*
X77264Y-56432D01*
X77257Y-56446D01*
X77249Y-56453D01*
X77235Y-56460D01*
X77207Y-56460D01*
X77192Y-56453D01*
X77385Y-56453D02*
X77371Y-56460D01*
X77342Y-56460D01*
X77328Y-56453D01*
X77321Y-56439D01*
X77321Y-56382D01*
X77328Y-56367D01*
X77342Y-56360D01*
X77371Y-56360D01*
X77385Y-56367D01*
X77392Y-56382D01*
X77392Y-56396D01*
X77321Y-56410D01*
X77649Y-56317D02*
X77635Y-56310D01*
X77614Y-56310D01*
X77592Y-56317D01*
X77578Y-56332D01*
X77571Y-56346D01*
X77564Y-56375D01*
X77564Y-56396D01*
X77571Y-56425D01*
X77578Y-56439D01*
X77592Y-56453D01*
X77614Y-56460D01*
X77628Y-56460D01*
X77649Y-56453D01*
X77657Y-56446D01*
X77657Y-56396D01*
X77628Y-56396D01*
X77721Y-56460D02*
X77721Y-56310D01*
X77807Y-56460D01*
X77807Y-56310D01*
X77878Y-56460D02*
X77878Y-56310D01*
X77914Y-56310D01*
X77935Y-56317D01*
X77949Y-56332D01*
X77957Y-56346D01*
X77964Y-56375D01*
X77964Y-56396D01*
X77957Y-56425D01*
X77949Y-56439D01*
X77935Y-56453D01*
X77914Y-56460D01*
X77878Y-56460D01*
X86003Y-56585D02*
X86003Y-56471D01*
X86060Y-56528D02*
X85946Y-56528D01*
X86060Y-56392D02*
X86060Y-56364D01*
X86053Y-56350D01*
X86046Y-56342D01*
X86025Y-56328D01*
X85996Y-56321D01*
X85939Y-56321D01*
X85925Y-56328D01*
X85917Y-56335D01*
X85910Y-56350D01*
X85910Y-56378D01*
X85917Y-56392D01*
X85925Y-56400D01*
X85939Y-56407D01*
X85975Y-56407D01*
X85989Y-56400D01*
X85996Y-56392D01*
X86003Y-56378D01*
X86003Y-56350D01*
X85996Y-56335D01*
X85989Y-56328D01*
X85975Y-56321D01*
X85960Y-56271D02*
X86060Y-56235D01*
X85960Y-56200D01*
X84917Y-56514D02*
X84910Y-56528D01*
X84910Y-56550D01*
X84917Y-56571D01*
X84932Y-56585D01*
X84946Y-56592D01*
X84975Y-56600D01*
X84996Y-56600D01*
X85025Y-56592D01*
X85039Y-56585D01*
X85053Y-56571D01*
X85060Y-56550D01*
X85060Y-56535D01*
X85053Y-56514D01*
X85046Y-56507D01*
X84996Y-56507D01*
X84996Y-56535D01*
X85060Y-56442D02*
X84910Y-56442D01*
X85060Y-56357D01*
X84910Y-56357D01*
X85060Y-56285D02*
X84910Y-56285D01*
X84910Y-56249D01*
X84917Y-56228D01*
X84932Y-56214D01*
X84946Y-56207D01*
X84975Y-56199D01*
X84996Y-56199D01*
X85025Y-56207D01*
X85039Y-56214D01*
X85053Y-56228D01*
X85060Y-56249D01*
X85060Y-56285D01*
X83903Y-56585D02*
X83903Y-56471D01*
X83960Y-56392D02*
X83960Y-56364D01*
X83953Y-56350D01*
X83946Y-56342D01*
X83925Y-56328D01*
X83896Y-56321D01*
X83839Y-56321D01*
X83825Y-56328D01*
X83817Y-56335D01*
X83810Y-56350D01*
X83810Y-56378D01*
X83817Y-56392D01*
X83825Y-56400D01*
X83839Y-56407D01*
X83875Y-56407D01*
X83889Y-56400D01*
X83896Y-56392D01*
X83903Y-56378D01*
X83903Y-56350D01*
X83896Y-56335D01*
X83889Y-56328D01*
X83875Y-56321D01*
X83860Y-56271D02*
X83960Y-56235D01*
X83860Y-56200D01*
X76064Y-58310D02*
X76092Y-58310D01*
X76107Y-58317D01*
X76121Y-58332D01*
X76128Y-58360D01*
X76128Y-58410D01*
X76121Y-58439D01*
X76107Y-58453D01*
X76092Y-58460D01*
X76064Y-58460D01*
X76050Y-58453D01*
X76035Y-58439D01*
X76028Y-58410D01*
X76028Y-58360D01*
X76035Y-58332D01*
X76050Y-58317D01*
X76064Y-58310D01*
X76185Y-58453D02*
X76200Y-58460D01*
X76228Y-58460D01*
X76242Y-58453D01*
X76250Y-58439D01*
X76250Y-58432D01*
X76242Y-58417D01*
X76228Y-58410D01*
X76207Y-58410D01*
X76192Y-58403D01*
X76185Y-58389D01*
X76185Y-58382D01*
X76192Y-58367D01*
X76207Y-58360D01*
X76228Y-58360D01*
X76242Y-58367D01*
X76378Y-58453D02*
X76364Y-58460D01*
X76335Y-58460D01*
X76321Y-58453D01*
X76314Y-58446D01*
X76307Y-58432D01*
X76307Y-58389D01*
X76314Y-58375D01*
X76321Y-58367D01*
X76335Y-58360D01*
X76364Y-58360D01*
X76378Y-58367D01*
X76442Y-58460D02*
X76442Y-58360D01*
X76442Y-58310D02*
X76435Y-58317D01*
X76442Y-58325D01*
X76450Y-58317D01*
X76442Y-58310D01*
X76442Y-58325D01*
X76535Y-58460D02*
X76521Y-58453D01*
X76514Y-58439D01*
X76514Y-58310D01*
X76614Y-58460D02*
X76600Y-58453D01*
X76592Y-58439D01*
X76592Y-58310D01*
X76692Y-58460D02*
X76678Y-58453D01*
X76671Y-58446D01*
X76664Y-58432D01*
X76664Y-58389D01*
X76671Y-58375D01*
X76678Y-58367D01*
X76692Y-58360D01*
X76714Y-58360D01*
X76728Y-58367D01*
X76735Y-58375D01*
X76742Y-58389D01*
X76742Y-58432D01*
X76735Y-58446D01*
X76728Y-58453D01*
X76714Y-58460D01*
X76692Y-58460D01*
X76799Y-58453D02*
X76814Y-58460D01*
X76842Y-58460D01*
X76857Y-58453D01*
X76864Y-58439D01*
X76864Y-58432D01*
X76857Y-58417D01*
X76842Y-58410D01*
X76821Y-58410D01*
X76807Y-58403D01*
X76799Y-58389D01*
X76799Y-58382D01*
X76807Y-58367D01*
X76821Y-58360D01*
X76842Y-58360D01*
X76857Y-58367D01*
X76992Y-58453D02*
X76978Y-58460D01*
X76950Y-58460D01*
X76935Y-58453D01*
X76928Y-58446D01*
X76921Y-58432D01*
X76921Y-58389D01*
X76928Y-58375D01*
X76935Y-58367D01*
X76950Y-58360D01*
X76978Y-58360D01*
X76992Y-58367D01*
X77078Y-58460D02*
X77064Y-58453D01*
X77057Y-58446D01*
X77049Y-58432D01*
X77049Y-58389D01*
X77057Y-58375D01*
X77064Y-58367D01*
X77078Y-58360D01*
X77099Y-58360D01*
X77114Y-58367D01*
X77121Y-58375D01*
X77128Y-58389D01*
X77128Y-58432D01*
X77121Y-58446D01*
X77114Y-58453D01*
X77099Y-58460D01*
X77078Y-58460D01*
X77192Y-58360D02*
X77192Y-58510D01*
X77192Y-58367D02*
X77207Y-58360D01*
X77235Y-58360D01*
X77249Y-58367D01*
X77257Y-58375D01*
X77264Y-58389D01*
X77264Y-58432D01*
X77257Y-58446D01*
X77249Y-58453D01*
X77235Y-58460D01*
X77207Y-58460D01*
X77192Y-58453D01*
X77385Y-58453D02*
X77371Y-58460D01*
X77342Y-58460D01*
X77328Y-58453D01*
X77321Y-58439D01*
X77321Y-58382D01*
X77328Y-58367D01*
X77342Y-58360D01*
X77371Y-58360D01*
X77385Y-58367D01*
X77392Y-58382D01*
X77392Y-58396D01*
X77321Y-58410D01*
X77571Y-58403D02*
X77685Y-58403D01*
X77871Y-58460D02*
X77871Y-58310D01*
X77928Y-58310D01*
X77942Y-58317D01*
X77949Y-58325D01*
X77957Y-58339D01*
X77957Y-58360D01*
X77949Y-58375D01*
X77942Y-58382D01*
X77928Y-58389D01*
X77871Y-58389D01*
X78021Y-58460D02*
X78021Y-58360D01*
X78021Y-58389D02*
X78028Y-58375D01*
X78035Y-58367D01*
X78049Y-58360D01*
X78064Y-58360D01*
X78171Y-58453D02*
X78157Y-58460D01*
X78128Y-58460D01*
X78114Y-58453D01*
X78107Y-58439D01*
X78107Y-58382D01*
X78114Y-58367D01*
X78128Y-58360D01*
X78157Y-58360D01*
X78171Y-58367D01*
X78178Y-58382D01*
X78178Y-58396D01*
X78107Y-58410D01*
X78242Y-58403D02*
X78357Y-58403D01*
X78421Y-58417D02*
X78492Y-58417D01*
X78407Y-58460D02*
X78457Y-58310D01*
X78507Y-58460D01*
X78557Y-58460D02*
X78557Y-58360D01*
X78557Y-58375D02*
X78564Y-58367D01*
X78578Y-58360D01*
X78599Y-58360D01*
X78614Y-58367D01*
X78621Y-58382D01*
X78621Y-58460D01*
X78621Y-58382D02*
X78628Y-58367D01*
X78642Y-58360D01*
X78664Y-58360D01*
X78678Y-58367D01*
X78685Y-58382D01*
X78685Y-58460D01*
X78757Y-58360D02*
X78757Y-58510D01*
X78757Y-58367D02*
X78771Y-58360D01*
X78799Y-58360D01*
X78814Y-58367D01*
X78821Y-58375D01*
X78828Y-58389D01*
X78828Y-58432D01*
X78821Y-58446D01*
X78814Y-58453D01*
X78799Y-58460D01*
X78771Y-58460D01*
X78757Y-58453D01*
X76064Y-57310D02*
X76092Y-57310D01*
X76107Y-57317D01*
X76121Y-57332D01*
X76128Y-57360D01*
X76128Y-57410D01*
X76121Y-57439D01*
X76107Y-57453D01*
X76092Y-57460D01*
X76064Y-57460D01*
X76050Y-57453D01*
X76035Y-57439D01*
X76028Y-57410D01*
X76028Y-57360D01*
X76035Y-57332D01*
X76050Y-57317D01*
X76064Y-57310D01*
X76185Y-57453D02*
X76200Y-57460D01*
X76228Y-57460D01*
X76242Y-57453D01*
X76250Y-57439D01*
X76250Y-57432D01*
X76242Y-57417D01*
X76228Y-57410D01*
X76207Y-57410D01*
X76192Y-57403D01*
X76185Y-57389D01*
X76185Y-57382D01*
X76192Y-57367D01*
X76207Y-57360D01*
X76228Y-57360D01*
X76242Y-57367D01*
X76378Y-57453D02*
X76364Y-57460D01*
X76335Y-57460D01*
X76321Y-57453D01*
X76314Y-57446D01*
X76307Y-57432D01*
X76307Y-57389D01*
X76314Y-57375D01*
X76321Y-57367D01*
X76335Y-57360D01*
X76364Y-57360D01*
X76378Y-57367D01*
X76442Y-57460D02*
X76442Y-57360D01*
X76442Y-57310D02*
X76435Y-57317D01*
X76442Y-57325D01*
X76450Y-57317D01*
X76442Y-57310D01*
X76442Y-57325D01*
X76535Y-57460D02*
X76521Y-57453D01*
X76514Y-57439D01*
X76514Y-57310D01*
X76614Y-57460D02*
X76600Y-57453D01*
X76592Y-57439D01*
X76592Y-57310D01*
X76692Y-57460D02*
X76678Y-57453D01*
X76671Y-57446D01*
X76664Y-57432D01*
X76664Y-57389D01*
X76671Y-57375D01*
X76678Y-57367D01*
X76692Y-57360D01*
X76714Y-57360D01*
X76728Y-57367D01*
X76735Y-57375D01*
X76742Y-57389D01*
X76742Y-57432D01*
X76735Y-57446D01*
X76728Y-57453D01*
X76714Y-57460D01*
X76692Y-57460D01*
X76799Y-57453D02*
X76814Y-57460D01*
X76842Y-57460D01*
X76857Y-57453D01*
X76864Y-57439D01*
X76864Y-57432D01*
X76857Y-57417D01*
X76842Y-57410D01*
X76821Y-57410D01*
X76807Y-57403D01*
X76799Y-57389D01*
X76799Y-57382D01*
X76807Y-57367D01*
X76821Y-57360D01*
X76842Y-57360D01*
X76857Y-57367D01*
X76992Y-57453D02*
X76978Y-57460D01*
X76950Y-57460D01*
X76935Y-57453D01*
X76928Y-57446D01*
X76921Y-57432D01*
X76921Y-57389D01*
X76928Y-57375D01*
X76935Y-57367D01*
X76950Y-57360D01*
X76978Y-57360D01*
X76992Y-57367D01*
X77078Y-57460D02*
X77064Y-57453D01*
X77057Y-57446D01*
X77049Y-57432D01*
X77049Y-57389D01*
X77057Y-57375D01*
X77064Y-57367D01*
X77078Y-57360D01*
X77099Y-57360D01*
X77114Y-57367D01*
X77121Y-57375D01*
X77128Y-57389D01*
X77128Y-57432D01*
X77121Y-57446D01*
X77114Y-57453D01*
X77099Y-57460D01*
X77078Y-57460D01*
X77192Y-57360D02*
X77192Y-57510D01*
X77192Y-57367D02*
X77207Y-57360D01*
X77235Y-57360D01*
X77249Y-57367D01*
X77257Y-57375D01*
X77264Y-57389D01*
X77264Y-57432D01*
X77257Y-57446D01*
X77249Y-57453D01*
X77235Y-57460D01*
X77207Y-57460D01*
X77192Y-57453D01*
X77385Y-57453D02*
X77371Y-57460D01*
X77342Y-57460D01*
X77328Y-57453D01*
X77321Y-57439D01*
X77321Y-57382D01*
X77328Y-57367D01*
X77342Y-57360D01*
X77371Y-57360D01*
X77385Y-57367D01*
X77392Y-57382D01*
X77392Y-57396D01*
X77321Y-57410D01*
X77571Y-57403D02*
X77685Y-57403D01*
X77871Y-57460D02*
X77871Y-57310D01*
X77928Y-57310D01*
X77942Y-57317D01*
X77949Y-57325D01*
X77957Y-57339D01*
X77957Y-57360D01*
X77949Y-57375D01*
X77942Y-57382D01*
X77928Y-57389D01*
X77871Y-57389D01*
X78042Y-57460D02*
X78028Y-57453D01*
X78021Y-57446D01*
X78014Y-57432D01*
X78014Y-57389D01*
X78021Y-57375D01*
X78028Y-57367D01*
X78042Y-57360D01*
X78064Y-57360D01*
X78078Y-57367D01*
X78085Y-57375D01*
X78092Y-57389D01*
X78092Y-57432D01*
X78085Y-57446D01*
X78078Y-57453D01*
X78064Y-57460D01*
X78042Y-57460D01*
X78149Y-57453D02*
X78164Y-57460D01*
X78192Y-57460D01*
X78207Y-57453D01*
X78214Y-57439D01*
X78214Y-57432D01*
X78207Y-57417D01*
X78192Y-57410D01*
X78171Y-57410D01*
X78157Y-57403D01*
X78149Y-57389D01*
X78149Y-57382D01*
X78157Y-57367D01*
X78171Y-57360D01*
X78192Y-57360D01*
X78207Y-57367D01*
X78257Y-57360D02*
X78314Y-57360D01*
X78278Y-57310D02*
X78278Y-57439D01*
X78285Y-57453D01*
X78299Y-57460D01*
X78314Y-57460D01*
X78364Y-57403D02*
X78478Y-57403D01*
X78542Y-57417D02*
X78614Y-57417D01*
X78528Y-57460D02*
X78578Y-57310D01*
X78628Y-57460D01*
X78678Y-57460D02*
X78678Y-57360D01*
X78678Y-57375D02*
X78685Y-57367D01*
X78699Y-57360D01*
X78721Y-57360D01*
X78735Y-57367D01*
X78742Y-57382D01*
X78742Y-57460D01*
X78742Y-57382D02*
X78749Y-57367D01*
X78764Y-57360D01*
X78785Y-57360D01*
X78799Y-57367D01*
X78807Y-57382D01*
X78807Y-57460D01*
X78878Y-57360D02*
X78878Y-57510D01*
X78878Y-57367D02*
X78892Y-57360D01*
X78921Y-57360D01*
X78935Y-57367D01*
X78942Y-57375D01*
X78949Y-57389D01*
X78949Y-57432D01*
X78942Y-57446D01*
X78935Y-57453D01*
X78921Y-57460D01*
X78892Y-57460D01*
X78878Y-57453D01*
X76121Y-55460D02*
X76071Y-55389D01*
X76035Y-55460D02*
X76035Y-55310D01*
X76092Y-55310D01*
X76107Y-55317D01*
X76114Y-55325D01*
X76121Y-55339D01*
X76121Y-55360D01*
X76114Y-55375D01*
X76107Y-55382D01*
X76092Y-55389D01*
X76035Y-55389D01*
X76292Y-55453D02*
X76314Y-55460D01*
X76350Y-55460D01*
X76364Y-55453D01*
X76371Y-55446D01*
X76378Y-55432D01*
X76378Y-55417D01*
X76371Y-55403D01*
X76364Y-55396D01*
X76350Y-55389D01*
X76321Y-55382D01*
X76307Y-55375D01*
X76300Y-55367D01*
X76292Y-55353D01*
X76292Y-55339D01*
X76300Y-55325D01*
X76307Y-55317D01*
X76321Y-55310D01*
X76357Y-55310D01*
X76378Y-55317D01*
X76442Y-55460D02*
X76442Y-55360D01*
X76442Y-55310D02*
X76435Y-55317D01*
X76442Y-55325D01*
X76450Y-55317D01*
X76442Y-55310D01*
X76442Y-55325D01*
X76578Y-55360D02*
X76578Y-55482D01*
X76571Y-55496D01*
X76564Y-55503D01*
X76550Y-55510D01*
X76528Y-55510D01*
X76514Y-55503D01*
X76578Y-55453D02*
X76564Y-55460D01*
X76535Y-55460D01*
X76521Y-55453D01*
X76514Y-55446D01*
X76507Y-55432D01*
X76507Y-55389D01*
X76514Y-55375D01*
X76521Y-55367D01*
X76535Y-55360D01*
X76564Y-55360D01*
X76578Y-55367D01*
X76650Y-55360D02*
X76650Y-55460D01*
X76650Y-55375D02*
X76657Y-55367D01*
X76671Y-55360D01*
X76692Y-55360D01*
X76707Y-55367D01*
X76714Y-55382D01*
X76714Y-55460D01*
X76850Y-55460D02*
X76850Y-55382D01*
X76842Y-55367D01*
X76828Y-55360D01*
X76800Y-55360D01*
X76785Y-55367D01*
X76850Y-55453D02*
X76835Y-55460D01*
X76800Y-55460D01*
X76785Y-55453D01*
X76778Y-55439D01*
X76778Y-55425D01*
X76785Y-55410D01*
X76800Y-55403D01*
X76835Y-55403D01*
X76850Y-55396D01*
X76942Y-55460D02*
X76928Y-55453D01*
X76921Y-55439D01*
X76921Y-55310D01*
X77114Y-55403D02*
X77228Y-55403D01*
X77414Y-55460D02*
X77414Y-55310D01*
X77485Y-55460D02*
X77485Y-55310D01*
X77571Y-55460D01*
X77571Y-55310D01*
X76121Y-54460D02*
X76071Y-54389D01*
X76035Y-54460D02*
X76035Y-54310D01*
X76092Y-54310D01*
X76107Y-54317D01*
X76114Y-54325D01*
X76121Y-54339D01*
X76121Y-54360D01*
X76114Y-54375D01*
X76107Y-54382D01*
X76092Y-54389D01*
X76035Y-54389D01*
X76292Y-54453D02*
X76314Y-54460D01*
X76350Y-54460D01*
X76364Y-54453D01*
X76371Y-54446D01*
X76378Y-54432D01*
X76378Y-54417D01*
X76371Y-54403D01*
X76364Y-54396D01*
X76350Y-54389D01*
X76321Y-54382D01*
X76307Y-54375D01*
X76300Y-54367D01*
X76292Y-54353D01*
X76292Y-54339D01*
X76300Y-54325D01*
X76307Y-54317D01*
X76321Y-54310D01*
X76357Y-54310D01*
X76378Y-54317D01*
X76442Y-54460D02*
X76442Y-54360D01*
X76442Y-54310D02*
X76435Y-54317D01*
X76442Y-54325D01*
X76450Y-54317D01*
X76442Y-54310D01*
X76442Y-54325D01*
X76578Y-54360D02*
X76578Y-54482D01*
X76571Y-54496D01*
X76564Y-54503D01*
X76550Y-54510D01*
X76528Y-54510D01*
X76514Y-54503D01*
X76578Y-54453D02*
X76564Y-54460D01*
X76535Y-54460D01*
X76521Y-54453D01*
X76514Y-54446D01*
X76507Y-54432D01*
X76507Y-54389D01*
X76514Y-54375D01*
X76521Y-54367D01*
X76535Y-54360D01*
X76564Y-54360D01*
X76578Y-54367D01*
X76650Y-54360D02*
X76650Y-54460D01*
X76650Y-54375D02*
X76657Y-54367D01*
X76671Y-54360D01*
X76692Y-54360D01*
X76707Y-54367D01*
X76714Y-54382D01*
X76714Y-54460D01*
X76850Y-54460D02*
X76850Y-54382D01*
X76842Y-54367D01*
X76828Y-54360D01*
X76800Y-54360D01*
X76785Y-54367D01*
X76850Y-54453D02*
X76835Y-54460D01*
X76800Y-54460D01*
X76785Y-54453D01*
X76778Y-54439D01*
X76778Y-54425D01*
X76785Y-54410D01*
X76800Y-54403D01*
X76835Y-54403D01*
X76850Y-54396D01*
X76942Y-54460D02*
X76928Y-54453D01*
X76921Y-54439D01*
X76921Y-54310D01*
X77114Y-54403D02*
X77228Y-54403D01*
X77442Y-54310D02*
X77471Y-54310D01*
X77485Y-54317D01*
X77500Y-54332D01*
X77507Y-54360D01*
X77507Y-54410D01*
X77500Y-54439D01*
X77485Y-54453D01*
X77471Y-54460D01*
X77442Y-54460D01*
X77428Y-54453D01*
X77414Y-54439D01*
X77407Y-54410D01*
X77407Y-54360D01*
X77414Y-54332D01*
X77428Y-54317D01*
X77442Y-54310D01*
X77571Y-54310D02*
X77571Y-54432D01*
X77578Y-54446D01*
X77585Y-54453D01*
X77600Y-54460D01*
X77628Y-54460D01*
X77642Y-54453D01*
X77650Y-54446D01*
X77657Y-54432D01*
X77657Y-54310D01*
X77707Y-54310D02*
X77792Y-54310D01*
X77750Y-54460D02*
X77750Y-54310D01*
X76121Y-53460D02*
X76071Y-53389D01*
X76035Y-53460D02*
X76035Y-53310D01*
X76092Y-53310D01*
X76107Y-53317D01*
X76114Y-53325D01*
X76121Y-53339D01*
X76121Y-53360D01*
X76114Y-53375D01*
X76107Y-53382D01*
X76092Y-53389D01*
X76035Y-53389D01*
X76350Y-53382D02*
X76300Y-53382D01*
X76300Y-53460D02*
X76300Y-53310D01*
X76371Y-53310D01*
X76485Y-53453D02*
X76471Y-53460D01*
X76442Y-53460D01*
X76428Y-53453D01*
X76421Y-53439D01*
X76421Y-53382D01*
X76428Y-53367D01*
X76442Y-53360D01*
X76471Y-53360D01*
X76485Y-53367D01*
X76492Y-53382D01*
X76492Y-53396D01*
X76421Y-53410D01*
X76614Y-53453D02*
X76599Y-53460D01*
X76571Y-53460D01*
X76557Y-53453D01*
X76549Y-53439D01*
X76549Y-53382D01*
X76557Y-53367D01*
X76571Y-53360D01*
X76599Y-53360D01*
X76614Y-53367D01*
X76621Y-53382D01*
X76621Y-53396D01*
X76549Y-53410D01*
X76749Y-53460D02*
X76749Y-53310D01*
X76749Y-53453D02*
X76735Y-53460D01*
X76707Y-53460D01*
X76692Y-53453D01*
X76685Y-53446D01*
X76678Y-53432D01*
X76678Y-53389D01*
X76685Y-53375D01*
X76692Y-53367D01*
X76707Y-53360D01*
X76735Y-53360D01*
X76749Y-53367D01*
X76821Y-53460D02*
X76821Y-53310D01*
X76821Y-53367D02*
X76835Y-53360D01*
X76864Y-53360D01*
X76878Y-53367D01*
X76885Y-53375D01*
X76892Y-53389D01*
X76892Y-53432D01*
X76885Y-53446D01*
X76878Y-53453D01*
X76864Y-53460D01*
X76835Y-53460D01*
X76821Y-53453D01*
X77021Y-53460D02*
X77021Y-53382D01*
X77014Y-53367D01*
X76999Y-53360D01*
X76971Y-53360D01*
X76957Y-53367D01*
X77021Y-53453D02*
X77007Y-53460D01*
X76971Y-53460D01*
X76957Y-53453D01*
X76949Y-53439D01*
X76949Y-53425D01*
X76957Y-53410D01*
X76971Y-53403D01*
X77007Y-53403D01*
X77021Y-53396D01*
X77157Y-53453D02*
X77142Y-53460D01*
X77114Y-53460D01*
X77099Y-53453D01*
X77092Y-53446D01*
X77085Y-53432D01*
X77085Y-53389D01*
X77092Y-53375D01*
X77099Y-53367D01*
X77114Y-53360D01*
X77142Y-53360D01*
X77157Y-53367D01*
X77221Y-53460D02*
X77221Y-53310D01*
X77235Y-53403D02*
X77278Y-53460D01*
X77278Y-53360D02*
X77221Y-53417D01*
X77457Y-53403D02*
X77571Y-53403D01*
X77757Y-53460D02*
X77757Y-53310D01*
X77828Y-53460D02*
X77828Y-53310D01*
X77914Y-53460D01*
X77914Y-53310D01*
X76121Y-52460D02*
X76071Y-52389D01*
X76035Y-52460D02*
X76035Y-52310D01*
X76092Y-52310D01*
X76107Y-52317D01*
X76114Y-52325D01*
X76121Y-52339D01*
X76121Y-52360D01*
X76114Y-52375D01*
X76107Y-52382D01*
X76092Y-52389D01*
X76035Y-52389D01*
X76350Y-52382D02*
X76300Y-52382D01*
X76300Y-52460D02*
X76300Y-52310D01*
X76371Y-52310D01*
X76485Y-52453D02*
X76471Y-52460D01*
X76442Y-52460D01*
X76428Y-52453D01*
X76421Y-52439D01*
X76421Y-52382D01*
X76428Y-52367D01*
X76442Y-52360D01*
X76471Y-52360D01*
X76485Y-52367D01*
X76492Y-52382D01*
X76492Y-52396D01*
X76421Y-52410D01*
X76614Y-52453D02*
X76599Y-52460D01*
X76571Y-52460D01*
X76557Y-52453D01*
X76549Y-52439D01*
X76549Y-52382D01*
X76557Y-52367D01*
X76571Y-52360D01*
X76599Y-52360D01*
X76614Y-52367D01*
X76621Y-52382D01*
X76621Y-52396D01*
X76549Y-52410D01*
X76749Y-52460D02*
X76749Y-52310D01*
X76749Y-52453D02*
X76735Y-52460D01*
X76707Y-52460D01*
X76692Y-52453D01*
X76685Y-52446D01*
X76678Y-52432D01*
X76678Y-52389D01*
X76685Y-52375D01*
X76692Y-52367D01*
X76707Y-52360D01*
X76735Y-52360D01*
X76749Y-52367D01*
X76821Y-52460D02*
X76821Y-52310D01*
X76821Y-52367D02*
X76835Y-52360D01*
X76864Y-52360D01*
X76878Y-52367D01*
X76885Y-52375D01*
X76892Y-52389D01*
X76892Y-52432D01*
X76885Y-52446D01*
X76878Y-52453D01*
X76864Y-52460D01*
X76835Y-52460D01*
X76821Y-52453D01*
X77021Y-52460D02*
X77021Y-52382D01*
X77014Y-52367D01*
X76999Y-52360D01*
X76971Y-52360D01*
X76957Y-52367D01*
X77021Y-52453D02*
X77007Y-52460D01*
X76971Y-52460D01*
X76957Y-52453D01*
X76949Y-52439D01*
X76949Y-52425D01*
X76957Y-52410D01*
X76971Y-52403D01*
X77007Y-52403D01*
X77021Y-52396D01*
X77157Y-52453D02*
X77142Y-52460D01*
X77114Y-52460D01*
X77099Y-52453D01*
X77092Y-52446D01*
X77085Y-52432D01*
X77085Y-52389D01*
X77092Y-52375D01*
X77099Y-52367D01*
X77114Y-52360D01*
X77142Y-52360D01*
X77157Y-52367D01*
X77221Y-52460D02*
X77221Y-52310D01*
X77235Y-52403D02*
X77278Y-52460D01*
X77278Y-52360D02*
X77221Y-52417D01*
X77457Y-52403D02*
X77571Y-52403D01*
X77785Y-52310D02*
X77814Y-52310D01*
X77828Y-52317D01*
X77842Y-52332D01*
X77849Y-52360D01*
X77849Y-52410D01*
X77842Y-52439D01*
X77828Y-52453D01*
X77814Y-52460D01*
X77785Y-52460D01*
X77771Y-52453D01*
X77757Y-52439D01*
X77749Y-52410D01*
X77749Y-52360D01*
X77757Y-52332D01*
X77771Y-52317D01*
X77785Y-52310D01*
X77914Y-52310D02*
X77914Y-52432D01*
X77921Y-52446D01*
X77928Y-52453D01*
X77942Y-52460D01*
X77971Y-52460D01*
X77985Y-52453D01*
X77992Y-52446D01*
X77999Y-52432D01*
X77999Y-52310D01*
X78049Y-52310D02*
X78135Y-52310D01*
X78092Y-52460D02*
X78092Y-52310D01*
G54D12*
X86000Y-51850D02*
X86000Y-51800D01*
X86000Y-51800D02*
X83900Y-51800D01*
X83900Y-53300D02*
X86000Y-53300D01*
X86000Y-53300D02*
X86000Y-51850D01*
X86000Y-52750D02*
X85800Y-52750D01*
X85800Y-52750D02*
X85800Y-52350D01*
X85800Y-52350D02*
X86000Y-52350D01*
X83900Y-53300D02*
X83900Y-51800D01*
X86000Y-57650D02*
X86000Y-57600D01*
X86000Y-57600D02*
X83900Y-57600D01*
X83900Y-59100D02*
X86000Y-59100D01*
X86000Y-59100D02*
X86000Y-57650D01*
X86000Y-58550D02*
X85800Y-58550D01*
X85800Y-58550D02*
X85800Y-58150D01*
X85800Y-58150D02*
X86000Y-58150D01*
X83900Y-59100D02*
X83900Y-57600D01*
X83450Y-52050D02*
X82550Y-52050D01*
X82550Y-52050D02*
X82550Y-52700D01*
X83450Y-53400D02*
X83450Y-54050D01*
X83450Y-54050D02*
X82550Y-54050D01*
X82550Y-54050D02*
X82550Y-53400D01*
X83450Y-52700D02*
X83450Y-52050D01*
X82100Y-57000D02*
X83000Y-57000D01*
X83000Y-57000D02*
X83000Y-56350D01*
X82100Y-55650D02*
X82100Y-55000D01*
X82100Y-55000D02*
X83000Y-55000D01*
X83000Y-55000D02*
X83000Y-55650D01*
X82100Y-56350D02*
X82100Y-57000D01*
X81650Y-57950D02*
X81650Y-58850D01*
X81650Y-58850D02*
X82300Y-58850D01*
X83000Y-57950D02*
X83650Y-57950D01*
X83650Y-57950D02*
X83650Y-58850D01*
X83650Y-58850D02*
X83000Y-58850D01*
X82300Y-57950D02*
X81650Y-57950D01*
G54D13*
X83550Y-51200D02*
G75*
G03X83550Y-51200I-50J0D01*
G74*
G01*
X83050Y-51200D02*
X83450Y-51200D01*
X83450Y-51200D02*
X83450Y-51800D01*
X83450Y-51800D02*
X83050Y-51800D01*
X82650Y-51800D02*
X82250Y-51800D01*
X82250Y-51800D02*
X82250Y-51200D01*
X82250Y-51200D02*
X82650Y-51200D01*
X82300Y-52750D02*
G75*
G03X82300Y-52750I-50J0D01*
G74*
G01*
X81800Y-52750D02*
X82200Y-52750D01*
X82200Y-52750D02*
X82200Y-53350D01*
X82200Y-53350D02*
X81800Y-53350D01*
X81400Y-53350D02*
X81000Y-53350D01*
X81000Y-53350D02*
X81000Y-52750D01*
X81000Y-52750D02*
X81400Y-52750D01*
X82300Y-53800D02*
G75*
G03X82300Y-53800I-50J0D01*
G74*
G01*
X81800Y-53800D02*
X82200Y-53800D01*
X82200Y-53800D02*
X82200Y-54400D01*
X82200Y-54400D02*
X81800Y-54400D01*
X81400Y-54400D02*
X81000Y-54400D01*
X81000Y-54400D02*
X81000Y-53800D01*
X81000Y-53800D02*
X81400Y-53800D01*
X81400Y-57700D02*
G75*
G03X81400Y-57700I-50J0D01*
G74*
G01*
X81350Y-57250D02*
X81350Y-57650D01*
X81350Y-57650D02*
X80750Y-57650D01*
X80750Y-57650D02*
X80750Y-57250D01*
X80750Y-56850D02*
X80750Y-56450D01*
X80750Y-56450D02*
X81350Y-56450D01*
X81350Y-56450D02*
X81350Y-56850D01*
X81750Y-51200D02*
G75*
G03X81750Y-51200I-50J0D01*
G74*
G01*
X81250Y-51200D02*
X81650Y-51200D01*
X81650Y-51200D02*
X81650Y-51800D01*
X81650Y-51800D02*
X81250Y-51800D01*
X80850Y-51800D02*
X80450Y-51800D01*
X80450Y-51800D02*
X80450Y-51200D01*
X80450Y-51200D02*
X80850Y-51200D01*
X82450Y-59700D02*
G75*
G03X82450Y-59700I-50J0D01*
G74*
G01*
X82850Y-59700D02*
X82450Y-59700D01*
X82450Y-59700D02*
X82450Y-59100D01*
X82450Y-59100D02*
X82850Y-59100D01*
X83250Y-59100D02*
X83650Y-59100D01*
X83650Y-59100D02*
X83650Y-59700D01*
X83650Y-59700D02*
X83250Y-59700D01*
X79400Y-53050D02*
G75*
G03X79400Y-53050I-50J0D01*
G74*
G01*
X79350Y-53500D02*
X79350Y-53100D01*
X79350Y-53100D02*
X79950Y-53100D01*
X79950Y-53100D02*
X79950Y-53500D01*
X79950Y-53900D02*
X79950Y-54300D01*
X79950Y-54300D02*
X79350Y-54300D01*
X79350Y-54300D02*
X79350Y-53900D01*
X79400Y-51250D02*
G75*
G03X79400Y-51250I-50J0D01*
G74*
G01*
X79350Y-51700D02*
X79350Y-51300D01*
X79350Y-51300D02*
X79950Y-51300D01*
X79950Y-51300D02*
X79950Y-51700D01*
X79950Y-52100D02*
X79950Y-52500D01*
X79950Y-52500D02*
X79350Y-52500D01*
X79350Y-52500D02*
X79350Y-52100D01*
G54D14*
X86450Y-54950D02*
X86450Y-55950D01*
X86450Y-55950D02*
X83450Y-55950D01*
X83450Y-55950D02*
X83450Y-54950D01*
X83450Y-54950D02*
X86450Y-54950D01*
X85450Y-55950D02*
X85450Y-54950D01*
X74800Y-58950D02*
X74800Y-58950D01*
X74800Y-58950D02*
X74800Y-51950D01*
X74800Y-51950D02*
X75800Y-51950D01*
X75800Y-51950D02*
X75800Y-58950D01*
X75800Y-58950D02*
X74800Y-58950D01*
X75800Y-57950D02*
X75800Y-57950D01*
X75800Y-57950D02*
X74800Y-57950D01*
G54D15*
G36*
X92325Y-55678D02*
X92343Y-55679D01*
X92356Y-55682D01*
X92364Y-55686D01*
X92366Y-55689D01*
X92369Y-55694D01*
X92370Y-55696D01*
X92370Y-55699D01*
X92369Y-55706D01*
X92369Y-55718D01*
X92369Y-55732D01*
X92368Y-55748D01*
X92368Y-55754D01*
X92367Y-55772D01*
X92367Y-55787D01*
X92366Y-55800D01*
X92365Y-55809D01*
X92364Y-55813D01*
X92364Y-55813D01*
X92360Y-55814D01*
X92353Y-55815D01*
X92341Y-55816D01*
X92327Y-55816D01*
X92313Y-55817D01*
X92294Y-55817D01*
X92280Y-55817D01*
X92271Y-55816D01*
X92264Y-55816D01*
X92261Y-55815D01*
X92260Y-55814D01*
X92259Y-55812D01*
X92258Y-55806D01*
X92258Y-55798D01*
X92257Y-55785D01*
X92257Y-55768D01*
X92257Y-55751D01*
X92256Y-55691D01*
X92263Y-55685D01*
X92266Y-55682D01*
X92270Y-55680D01*
X92275Y-55679D01*
X92284Y-55678D01*
X92296Y-55678D01*
X92302Y-55678D01*
X92325Y-55678D01*
X92325Y-55678D01*
X92325Y-55678D01*
G37*
G36*
X92322Y-57546D02*
X92336Y-57546D01*
X92347Y-57546D01*
X92356Y-57547D01*
X92360Y-57548D01*
X92360Y-57548D01*
X92361Y-57551D01*
X92361Y-57559D01*
X92362Y-57571D01*
X92362Y-57587D01*
X92362Y-57607D01*
X92363Y-57628D01*
X92363Y-57652D01*
X92363Y-57678D01*
X92364Y-57704D01*
X92364Y-57731D01*
X92364Y-57758D01*
X92364Y-57785D01*
X92364Y-57810D01*
X92364Y-57833D01*
X92363Y-57855D01*
X92363Y-57873D01*
X92363Y-57888D01*
X92362Y-57900D01*
X92362Y-57907D01*
X92362Y-57909D01*
X92356Y-57914D01*
X92347Y-57918D01*
X92332Y-57920D01*
X92313Y-57921D01*
X92294Y-57920D01*
X92278Y-57919D01*
X92266Y-57916D01*
X92258Y-57913D01*
X92256Y-57911D01*
X92255Y-57908D01*
X92254Y-57900D01*
X92254Y-57887D01*
X92253Y-57871D01*
X92253Y-57852D01*
X92253Y-57830D01*
X92253Y-57806D01*
X92253Y-57780D01*
X92253Y-57754D01*
X92253Y-57726D01*
X92253Y-57700D01*
X92253Y-57673D01*
X92253Y-57648D01*
X92253Y-57625D01*
X92254Y-57603D01*
X92254Y-57585D01*
X92255Y-57570D01*
X92255Y-57559D01*
X92256Y-57552D01*
X92256Y-57550D01*
X92260Y-57548D01*
X92268Y-57547D01*
X92280Y-57547D01*
X92293Y-57546D01*
X92308Y-57546D01*
X92322Y-57546D01*
X92322Y-57546D01*
X92322Y-57546D01*
G37*
G36*
X92337Y-56953D02*
X92346Y-56953D01*
X92352Y-56954D01*
X92356Y-56955D01*
X92358Y-56956D01*
X92359Y-56957D01*
X92360Y-56958D01*
X92361Y-56961D01*
X92361Y-56964D01*
X92362Y-56969D01*
X92362Y-56977D01*
X92363Y-56986D01*
X92363Y-56999D01*
X92363Y-57015D01*
X92363Y-57034D01*
X92363Y-57057D01*
X92363Y-57085D01*
X92364Y-57117D01*
X92364Y-57137D01*
X92364Y-57315D01*
X92358Y-57321D01*
X92352Y-57325D01*
X92343Y-57328D01*
X92329Y-57329D01*
X92312Y-57329D01*
X92298Y-57329D01*
X92281Y-57328D01*
X92267Y-57325D01*
X92258Y-57321D01*
X92253Y-57317D01*
X92253Y-57316D01*
X92253Y-57312D01*
X92253Y-57304D01*
X92253Y-57292D01*
X92253Y-57275D01*
X92253Y-57255D01*
X92253Y-57232D01*
X92253Y-57206D01*
X92253Y-57179D01*
X92253Y-57149D01*
X92253Y-57137D01*
X92253Y-57100D01*
X92253Y-57068D01*
X92253Y-57041D01*
X92253Y-57018D01*
X92254Y-57000D01*
X92254Y-56985D01*
X92255Y-56974D01*
X92255Y-56966D01*
X92256Y-56961D01*
X92256Y-56959D01*
X92256Y-56959D01*
X92260Y-56958D01*
X92270Y-56956D01*
X92283Y-56955D01*
X92301Y-56954D01*
X92306Y-56954D01*
X92324Y-56953D01*
X92337Y-56953D01*
X92337Y-56953D01*
X92337Y-56953D01*
G37*
G36*
X92306Y-54759D02*
X92322Y-54760D01*
X92334Y-54760D01*
X92342Y-54761D01*
X92349Y-54762D01*
X92354Y-54764D01*
X92364Y-54769D01*
X92364Y-54802D01*
X92364Y-54818D01*
X92364Y-54837D01*
X92363Y-54854D01*
X92363Y-54863D01*
X92363Y-54875D01*
X92362Y-54886D01*
X92360Y-54893D01*
X92359Y-54896D01*
X92356Y-54897D01*
X92348Y-54898D01*
X92336Y-54899D01*
X92323Y-54899D01*
X92309Y-54899D01*
X92294Y-54899D01*
X92281Y-54899D01*
X92269Y-54898D01*
X92261Y-54897D01*
X92257Y-54896D01*
X92256Y-54894D01*
X92255Y-54892D01*
X92254Y-54887D01*
X92254Y-54881D01*
X92253Y-54871D01*
X92253Y-54858D01*
X92253Y-54840D01*
X92254Y-54831D01*
X92254Y-54770D01*
X92262Y-54765D01*
X92265Y-54762D01*
X92269Y-54761D01*
X92275Y-54760D01*
X92283Y-54759D01*
X92295Y-54759D01*
X92306Y-54759D01*
X92306Y-54759D01*
X92306Y-54759D01*
G37*
G36*
X92282Y-53967D02*
X92296Y-53967D01*
X92307Y-53967D01*
X92324Y-53967D01*
X92336Y-53968D01*
X92345Y-53968D01*
X92351Y-53969D01*
X92355Y-53971D01*
X92358Y-53972D01*
X92365Y-53977D01*
X92365Y-54008D01*
X92364Y-54025D01*
X92364Y-54043D01*
X92363Y-54061D01*
X92363Y-54069D01*
X92363Y-54081D01*
X92362Y-54091D01*
X92360Y-54099D01*
X92359Y-54102D01*
X92356Y-54103D01*
X92348Y-54104D01*
X92337Y-54105D01*
X92323Y-54105D01*
X92309Y-54105D01*
X92294Y-54105D01*
X92281Y-54105D01*
X92269Y-54104D01*
X92261Y-54103D01*
X92256Y-54102D01*
X92256Y-54102D01*
X92255Y-54099D01*
X92254Y-54092D01*
X92253Y-54082D01*
X92253Y-54066D01*
X92253Y-54047D01*
X92253Y-54038D01*
X92253Y-54017D01*
X92253Y-54000D01*
X92254Y-53988D01*
X92255Y-53979D01*
X92259Y-53973D01*
X92264Y-53970D01*
X92272Y-53968D01*
X92282Y-53967D01*
X92282Y-53967D01*
X92282Y-53967D01*
G37*
G36*
X92306Y-53380D02*
X92322Y-53380D01*
X92334Y-53380D01*
X92342Y-53381D01*
X92349Y-53383D01*
X92354Y-53385D01*
X92364Y-53390D01*
X92364Y-53422D01*
X92364Y-53438D01*
X92364Y-53457D01*
X92363Y-53474D01*
X92363Y-53483D01*
X92363Y-53496D01*
X92362Y-53506D01*
X92360Y-53513D01*
X92359Y-53516D01*
X92356Y-53517D01*
X92348Y-53518D01*
X92336Y-53519D01*
X92323Y-53520D01*
X92309Y-53520D01*
X92294Y-53520D01*
X92281Y-53519D01*
X92269Y-53518D01*
X92261Y-53517D01*
X92257Y-53516D01*
X92256Y-53515D01*
X92255Y-53512D01*
X92254Y-53508D01*
X92254Y-53501D01*
X92253Y-53491D01*
X92253Y-53478D01*
X92253Y-53460D01*
X92254Y-53452D01*
X92254Y-53390D01*
X92262Y-53385D01*
X92265Y-53383D01*
X92269Y-53381D01*
X92275Y-53380D01*
X92283Y-53380D01*
X92295Y-53380D01*
X92306Y-53380D01*
X92306Y-53380D01*
X92306Y-53380D01*
G37*
G36*
X92291Y-57366D02*
X92302Y-57366D01*
X92319Y-57366D01*
X92331Y-57366D01*
X92340Y-57367D01*
X92346Y-57368D01*
X92350Y-57369D01*
X92353Y-57370D01*
X92360Y-57375D01*
X92359Y-57407D01*
X92359Y-57423D01*
X92359Y-57442D01*
X92358Y-57459D01*
X92358Y-57467D01*
X92357Y-57479D01*
X92356Y-57490D01*
X92355Y-57497D01*
X92354Y-57500D01*
X92350Y-57501D01*
X92342Y-57502D01*
X92331Y-57503D01*
X92318Y-57503D01*
X92303Y-57504D01*
X92289Y-57504D01*
X92275Y-57503D01*
X92264Y-57503D01*
X92255Y-57502D01*
X92251Y-57500D01*
X92251Y-57500D01*
X92250Y-57497D01*
X92249Y-57491D01*
X92248Y-57480D01*
X92248Y-57465D01*
X92248Y-57445D01*
X92248Y-57436D01*
X92247Y-57415D01*
X92248Y-57399D01*
X92248Y-57386D01*
X92250Y-57377D01*
X92253Y-57371D01*
X92259Y-57368D01*
X92266Y-57366D01*
X92277Y-57366D01*
X92291Y-57366D01*
X92291Y-57366D01*
X92291Y-57366D01*
G37*
G36*
X92277Y-56775D02*
X92291Y-56775D01*
X92302Y-56775D01*
X92319Y-56775D01*
X92331Y-56775D01*
X92340Y-56776D01*
X92346Y-56777D01*
X92350Y-56778D01*
X92353Y-56780D01*
X92360Y-56784D01*
X92359Y-56816D01*
X92359Y-56832D01*
X92359Y-56851D01*
X92358Y-56868D01*
X92358Y-56876D01*
X92357Y-56889D01*
X92356Y-56899D01*
X92355Y-56906D01*
X92354Y-56909D01*
X92350Y-56910D01*
X92342Y-56911D01*
X92331Y-56912D01*
X92318Y-56913D01*
X92303Y-56913D01*
X92289Y-56913D01*
X92275Y-56912D01*
X92264Y-56912D01*
X92255Y-56911D01*
X92251Y-56909D01*
X92251Y-56909D01*
X92250Y-56906D01*
X92249Y-56900D01*
X92248Y-56889D01*
X92248Y-56874D01*
X92248Y-56854D01*
X92248Y-56846D01*
X92247Y-56824D01*
X92248Y-56808D01*
X92248Y-56795D01*
X92250Y-56786D01*
X92253Y-56781D01*
X92259Y-56777D01*
X92266Y-56775D01*
X92277Y-56775D01*
X92277Y-56775D01*
X92277Y-56775D01*
G37*
G36*
X92302Y-56444D02*
X92319Y-56445D01*
X92334Y-56447D01*
X92344Y-56449D01*
X92351Y-56452D01*
X92356Y-56456D01*
X92358Y-56462D01*
X92359Y-56472D01*
X92359Y-56486D01*
X92359Y-56490D01*
X92359Y-56507D01*
X92358Y-56526D01*
X92358Y-56544D01*
X92357Y-56552D01*
X92356Y-56582D01*
X92348Y-56584D01*
X92342Y-56585D01*
X92333Y-56585D01*
X92320Y-56586D01*
X92306Y-56586D01*
X92298Y-56586D01*
X92281Y-56586D01*
X92270Y-56586D01*
X92261Y-56585D01*
X92256Y-56584D01*
X92253Y-56583D01*
X92252Y-56582D01*
X92250Y-56578D01*
X92249Y-56569D01*
X92248Y-56557D01*
X92247Y-56543D01*
X92247Y-56527D01*
X92247Y-56511D01*
X92247Y-56495D01*
X92248Y-56480D01*
X92249Y-56468D01*
X92250Y-56459D01*
X92252Y-56454D01*
X92252Y-56454D01*
X92259Y-56450D01*
X92270Y-56447D01*
X92285Y-56445D01*
X92302Y-56444D01*
X92302Y-56444D01*
X92302Y-56444D01*
G37*
G36*
X92346Y-55859D02*
X92348Y-55859D01*
X92351Y-55859D01*
X92353Y-55860D01*
X92354Y-55862D01*
X92356Y-55865D01*
X92357Y-55869D01*
X92358Y-55876D01*
X92359Y-55885D01*
X92359Y-55897D01*
X92359Y-55912D01*
X92360Y-55930D01*
X92360Y-55953D01*
X92360Y-55980D01*
X92360Y-56011D01*
X92360Y-56044D01*
X92360Y-56079D01*
X92360Y-56109D01*
X92360Y-56134D01*
X92360Y-56156D01*
X92360Y-56173D01*
X92359Y-56187D01*
X92359Y-56199D01*
X92359Y-56207D01*
X92358Y-56213D01*
X92358Y-56218D01*
X92357Y-56221D01*
X92356Y-56223D01*
X92355Y-56225D01*
X92355Y-56225D01*
X92350Y-56229D01*
X92344Y-56231D01*
X92335Y-56233D01*
X92323Y-56233D01*
X92306Y-56233D01*
X92296Y-56233D01*
X92281Y-56232D01*
X92269Y-56231D01*
X92262Y-56230D01*
X92256Y-56228D01*
X92255Y-56227D01*
X92248Y-56223D01*
X92248Y-56046D01*
X92248Y-56011D01*
X92248Y-55981D01*
X92248Y-55956D01*
X92248Y-55934D01*
X92248Y-55917D01*
X92248Y-55902D01*
X92248Y-55891D01*
X92249Y-55882D01*
X92249Y-55876D01*
X92250Y-55871D01*
X92251Y-55868D01*
X92251Y-55866D01*
X92252Y-55865D01*
X92252Y-55865D01*
X92254Y-55863D01*
X92257Y-55861D01*
X92261Y-55860D01*
X92268Y-55859D01*
X92279Y-55859D01*
X92293Y-55859D01*
X92298Y-55859D01*
X92313Y-55859D01*
X92326Y-55859D01*
X92337Y-55859D01*
X92344Y-55859D01*
X92346Y-55859D01*
X92346Y-55859D01*
X92346Y-55859D01*
G37*
G36*
X92329Y-55268D02*
X92340Y-55268D01*
X92348Y-55269D01*
X92352Y-55269D01*
X92359Y-55272D01*
X92359Y-55451D01*
X92359Y-55486D01*
X92359Y-55516D01*
X92360Y-55542D01*
X92360Y-55564D01*
X92359Y-55581D01*
X92359Y-55596D01*
X92359Y-55607D01*
X92359Y-55616D01*
X92358Y-55622D01*
X92358Y-55627D01*
X92357Y-55630D01*
X92356Y-55632D01*
X92356Y-55633D01*
X92355Y-55634D01*
X92350Y-55638D01*
X92344Y-55640D01*
X92335Y-55642D01*
X92323Y-55642D01*
X92306Y-55642D01*
X92298Y-55642D01*
X92279Y-55641D01*
X92265Y-55639D01*
X92257Y-55637D01*
X92257Y-55637D01*
X92249Y-55633D01*
X92249Y-55454D01*
X92249Y-55423D01*
X92249Y-55394D01*
X92249Y-55367D01*
X92249Y-55343D01*
X92250Y-55321D01*
X92250Y-55303D01*
X92250Y-55288D01*
X92251Y-55278D01*
X92251Y-55273D01*
X92251Y-55272D01*
X92255Y-55271D01*
X92263Y-55270D01*
X92274Y-55269D01*
X92287Y-55268D01*
X92301Y-55268D01*
X92316Y-55268D01*
X92329Y-55268D01*
X92329Y-55268D01*
X92329Y-55268D01*
G37*
G36*
X92299Y-55087D02*
X92314Y-55087D01*
X92329Y-55088D01*
X92341Y-55090D01*
X92349Y-55092D01*
X92351Y-55092D01*
X92360Y-55097D01*
X92359Y-55130D01*
X92359Y-55146D01*
X92359Y-55165D01*
X92358Y-55182D01*
X92358Y-55191D01*
X92357Y-55206D01*
X92356Y-55216D01*
X92354Y-55222D01*
X92354Y-55222D01*
X92350Y-55223D01*
X92342Y-55224D01*
X92330Y-55225D01*
X92316Y-55225D01*
X92303Y-55226D01*
X92285Y-55226D01*
X92272Y-55226D01*
X92263Y-55226D01*
X92257Y-55225D01*
X92253Y-55224D01*
X92252Y-55223D01*
X92251Y-55221D01*
X92249Y-55218D01*
X92249Y-55213D01*
X92248Y-55206D01*
X92248Y-55195D01*
X92248Y-55181D01*
X92248Y-55162D01*
X92248Y-55158D01*
X92248Y-55097D01*
X92255Y-55092D01*
X92261Y-55090D01*
X92271Y-55089D01*
X92285Y-55088D01*
X92299Y-55087D01*
X92299Y-55087D01*
X92299Y-55087D01*
G37*
G36*
X92324Y-54151D02*
X92334Y-54151D01*
X92340Y-54152D01*
X92344Y-54153D01*
X92347Y-54154D01*
X92348Y-54154D01*
X92355Y-54159D01*
X92355Y-54336D01*
X92355Y-54513D01*
X92348Y-54520D01*
X92345Y-54522D01*
X92342Y-54524D01*
X92337Y-54525D01*
X92331Y-54526D01*
X92321Y-54526D01*
X92308Y-54526D01*
X92301Y-54526D01*
X92285Y-54526D01*
X92272Y-54526D01*
X92263Y-54525D01*
X92257Y-54523D01*
X92252Y-54522D01*
X92242Y-54517D01*
X92242Y-54342D01*
X92242Y-54310D01*
X92242Y-54280D01*
X92242Y-54252D01*
X92243Y-54227D01*
X92243Y-54205D01*
X92243Y-54188D01*
X92244Y-54174D01*
X92244Y-54165D01*
X92245Y-54161D01*
X92245Y-54160D01*
X92246Y-54158D01*
X92247Y-54156D01*
X92250Y-54155D01*
X92255Y-54154D01*
X92263Y-54153D01*
X92275Y-54153D01*
X92291Y-54152D01*
X92294Y-54152D01*
X92312Y-54151D01*
X92324Y-54151D01*
X92324Y-54151D01*
X92324Y-54151D01*
G37*
G36*
X92325Y-53560D02*
X92333Y-53560D01*
X92340Y-53560D01*
X92344Y-53561D01*
X92347Y-53563D01*
X92348Y-53563D01*
X92355Y-53568D01*
X92355Y-53745D01*
X92355Y-53923D01*
X92348Y-53928D01*
X92340Y-53933D01*
X92329Y-53935D01*
X92315Y-53936D01*
X92296Y-53936D01*
X92289Y-53936D01*
X92271Y-53934D01*
X92258Y-53932D01*
X92250Y-53929D01*
X92245Y-53925D01*
X92243Y-53922D01*
X92243Y-53918D01*
X92243Y-53909D01*
X92243Y-53896D01*
X92242Y-53880D01*
X92242Y-53860D01*
X92242Y-53838D01*
X92242Y-53814D01*
X92242Y-53788D01*
X92243Y-53761D01*
X92243Y-53735D01*
X92243Y-53708D01*
X92243Y-53682D01*
X92244Y-53657D01*
X92244Y-53635D01*
X92244Y-53614D01*
X92245Y-53596D01*
X92245Y-53582D01*
X92246Y-53572D01*
X92246Y-53566D01*
X92246Y-53565D01*
X92250Y-53564D01*
X92257Y-53563D01*
X92269Y-53562D01*
X92283Y-53561D01*
X92295Y-53561D01*
X92312Y-53560D01*
X92325Y-53560D01*
X92325Y-53560D01*
X92325Y-53560D01*
G37*
G36*
X92295Y-53052D02*
X92313Y-53052D01*
X92328Y-53054D01*
X92341Y-53057D01*
X92349Y-53061D01*
X92350Y-53061D01*
X92351Y-53064D01*
X92353Y-53069D01*
X92354Y-53077D01*
X92354Y-53088D01*
X92354Y-53102D01*
X92354Y-53121D01*
X92353Y-53144D01*
X92352Y-53159D01*
X92351Y-53189D01*
X92334Y-53191D01*
X92325Y-53192D01*
X92313Y-53192D01*
X92298Y-53193D01*
X92285Y-53193D01*
X92270Y-53193D01*
X92261Y-53193D01*
X92254Y-53192D01*
X92250Y-53191D01*
X92247Y-53189D01*
X92247Y-53188D01*
X92245Y-53186D01*
X92244Y-53183D01*
X92243Y-53177D01*
X92243Y-53169D01*
X92242Y-53158D01*
X92242Y-53143D01*
X92242Y-53124D01*
X92242Y-53105D01*
X92242Y-53090D01*
X92243Y-53080D01*
X92243Y-53072D01*
X92244Y-53067D01*
X92245Y-53064D01*
X92246Y-53061D01*
X92248Y-53060D01*
X92253Y-53056D01*
X92261Y-53054D01*
X92273Y-53052D01*
X92288Y-53052D01*
X92295Y-53052D01*
X92295Y-53052D01*
X92295Y-53052D01*
G37*
G36*
X90487Y-54338D02*
X90490Y-54338D01*
X90495Y-54343D01*
X90501Y-54350D01*
X90507Y-54359D01*
X90513Y-54369D01*
X90517Y-54376D01*
X90541Y-54426D01*
X90568Y-54478D01*
X90599Y-54530D01*
X90602Y-54535D01*
X90519Y-54535D01*
X90517Y-54548D01*
X90515Y-54565D01*
X90514Y-54587D01*
X90512Y-54612D01*
X90511Y-54638D01*
X90510Y-54667D01*
X90510Y-54695D01*
X90510Y-54722D01*
X90510Y-54747D01*
X90511Y-54769D01*
X90513Y-54787D01*
X90519Y-54830D01*
X90530Y-54873D01*
X90546Y-54917D01*
X90566Y-54960D01*
X90590Y-55001D01*
X90617Y-55041D01*
X90648Y-55079D01*
X90681Y-55113D01*
X90716Y-55144D01*
X90746Y-55166D01*
X90780Y-55187D01*
X90817Y-55206D01*
X90856Y-55223D01*
X90896Y-55238D01*
X90936Y-55249D01*
X90960Y-55254D01*
X90980Y-55256D01*
X91003Y-55258D01*
X91027Y-55259D01*
X91051Y-55258D01*
X91073Y-55257D01*
X91092Y-55254D01*
X91093Y-55254D01*
X91124Y-55246D01*
X91154Y-55236D01*
X91184Y-55223D01*
X91213Y-55207D01*
X91243Y-55188D01*
X91274Y-55164D01*
X91307Y-55137D01*
X91341Y-55105D01*
X91358Y-55088D01*
X91408Y-55036D01*
X91456Y-54980D01*
X91491Y-54937D01*
X91518Y-54904D01*
X91546Y-54874D01*
X91575Y-54847D01*
X91604Y-54824D01*
X91633Y-54804D01*
X91662Y-54788D01*
X91691Y-54776D01*
X91718Y-54768D01*
X91745Y-54764D01*
X91770Y-54764D01*
X91793Y-54768D01*
X91815Y-54776D01*
X91834Y-54790D01*
X91836Y-54791D01*
X91848Y-54805D01*
X91856Y-54820D01*
X91860Y-54838D01*
X91861Y-54850D01*
X91861Y-54862D01*
X91859Y-54871D01*
X91857Y-54880D01*
X91853Y-54889D01*
X91839Y-54912D01*
X91821Y-54935D01*
X91797Y-54958D01*
X91772Y-54978D01*
X91765Y-54984D01*
X91760Y-54988D01*
X91758Y-54990D01*
X91761Y-54992D01*
X91767Y-54995D01*
X91777Y-54997D01*
X91789Y-55000D01*
X91802Y-55003D01*
X91815Y-55005D01*
X91825Y-55006D01*
X91850Y-55007D01*
X91876Y-55006D01*
X91902Y-55003D01*
X91917Y-54999D01*
X91935Y-54993D01*
X91955Y-54985D01*
X91975Y-54974D01*
X91993Y-54964D01*
X92003Y-54956D01*
X92020Y-54942D01*
X92037Y-54926D01*
X92053Y-54909D01*
X92067Y-54892D01*
X92077Y-54877D01*
X92093Y-54849D01*
X92102Y-54821D01*
X92107Y-54792D01*
X92107Y-54764D01*
X92101Y-54734D01*
X92098Y-54724D01*
X92085Y-54694D01*
X92069Y-54667D01*
X92050Y-54643D01*
X92028Y-54623D01*
X92012Y-54612D01*
X91983Y-54598D01*
X91952Y-54589D01*
X91920Y-54585D01*
X91886Y-54586D01*
X91852Y-54592D01*
X91816Y-54603D01*
X91781Y-54619D01*
X91756Y-54632D01*
X91724Y-54653D01*
X91687Y-54677D01*
X91648Y-54705D01*
X91618Y-54727D01*
X91566Y-54764D01*
X91517Y-54796D01*
X91470Y-54825D01*
X91424Y-54850D01*
X91379Y-54872D01*
X91334Y-54890D01*
X91289Y-54906D01*
X91243Y-54918D01*
X91238Y-54919D01*
X91209Y-54926D01*
X91177Y-54931D01*
X91145Y-54935D01*
X91112Y-54938D01*
X91080Y-54939D01*
X91051Y-54939D01*
X91025Y-54938D01*
X91006Y-54935D01*
X90970Y-54927D01*
X90933Y-54915D01*
X90894Y-54898D01*
X90855Y-54878D01*
X90815Y-54854D01*
X90775Y-54827D01*
X90737Y-54797D01*
X90699Y-54765D01*
X90664Y-54730D01*
X90631Y-54694D01*
X90605Y-54663D01*
X90592Y-54647D01*
X90579Y-54629D01*
X90566Y-54610D01*
X90554Y-54592D01*
X90543Y-54575D01*
X90534Y-54561D01*
X90530Y-54555D01*
X90519Y-54535D01*
X90602Y-54535D01*
X90629Y-54577D01*
X90666Y-54631D01*
X90704Y-54679D01*
X90742Y-54723D01*
X90781Y-54761D01*
X90820Y-54794D01*
X90861Y-54823D01*
X90902Y-54847D01*
X90944Y-54866D01*
X90963Y-54873D01*
X91012Y-54888D01*
X91062Y-54897D01*
X91114Y-54901D01*
X91166Y-54900D01*
X91220Y-54894D01*
X91248Y-54890D01*
X91273Y-54884D01*
X91296Y-54878D01*
X91319Y-54872D01*
X91341Y-54865D01*
X91363Y-54856D01*
X91385Y-54847D01*
X91408Y-54836D01*
X91432Y-54823D01*
X91457Y-54808D01*
X91483Y-54791D01*
X91512Y-54772D01*
X91543Y-54751D01*
X91577Y-54726D01*
X91615Y-54699D01*
X91656Y-54668D01*
X91665Y-54661D01*
X91687Y-54645D01*
X91708Y-54629D01*
X91728Y-54614D01*
X91747Y-54600D01*
X91764Y-54588D01*
X91778Y-54578D01*
X91789Y-54570D01*
X91796Y-54565D01*
X91796Y-54565D01*
X91826Y-54548D01*
X91859Y-54536D01*
X91896Y-54528D01*
X91935Y-54525D01*
X91944Y-54525D01*
X91978Y-54526D01*
X92008Y-54531D01*
X92036Y-54540D01*
X92061Y-54552D01*
X92085Y-54569D01*
X92104Y-54586D01*
X92123Y-54607D01*
X92137Y-54629D01*
X92145Y-54649D01*
X92148Y-54656D01*
X92149Y-54662D01*
X92151Y-54670D01*
X92152Y-54678D01*
X92152Y-54689D01*
X92153Y-54704D01*
X92153Y-54721D01*
X92153Y-54739D01*
X92153Y-54757D01*
X92152Y-54773D01*
X92152Y-54786D01*
X92151Y-54795D01*
X92146Y-54825D01*
X92137Y-54852D01*
X92125Y-54878D01*
X92109Y-54902D01*
X92089Y-54926D01*
X92065Y-54949D01*
X92037Y-54971D01*
X92001Y-54995D01*
X91964Y-55014D01*
X91926Y-55029D01*
X91887Y-55038D01*
X91845Y-55043D01*
X91802Y-55042D01*
X91756Y-55037D01*
X91731Y-55033D01*
X91714Y-55029D01*
X91696Y-55024D01*
X91676Y-55017D01*
X91656Y-55011D01*
X91638Y-55004D01*
X91621Y-54997D01*
X91608Y-54991D01*
X91600Y-54986D01*
X91598Y-54983D01*
X91601Y-54978D01*
X91608Y-54973D01*
X91619Y-54968D01*
X91632Y-54963D01*
X91648Y-54958D01*
X91648Y-54958D01*
X91685Y-54947D01*
X91717Y-54936D01*
X91744Y-54923D01*
X91768Y-54910D01*
X91773Y-54906D01*
X91790Y-54892D01*
X91804Y-54877D01*
X91813Y-54861D01*
X91819Y-54846D01*
X91820Y-54832D01*
X91817Y-54818D01*
X91816Y-54817D01*
X91808Y-54806D01*
X91794Y-54797D01*
X91777Y-54792D01*
X91755Y-54788D01*
X91749Y-54788D01*
X91731Y-54787D01*
X91714Y-54789D01*
X91697Y-54794D01*
X91678Y-54801D01*
X91665Y-54807D01*
X91651Y-54815D01*
X91637Y-54823D01*
X91623Y-54834D01*
X91608Y-54846D01*
X91593Y-54860D01*
X91576Y-54876D01*
X91557Y-54896D01*
X91537Y-54919D01*
X91514Y-54946D01*
X91498Y-54965D01*
X91466Y-55003D01*
X91437Y-55037D01*
X91411Y-55067D01*
X91388Y-55094D01*
X91367Y-55117D01*
X91348Y-55138D01*
X91331Y-55156D01*
X91315Y-55172D01*
X91301Y-55186D01*
X91288Y-55198D01*
X91275Y-55208D01*
X91266Y-55215D01*
X91233Y-55236D01*
X91197Y-55253D01*
X91159Y-55265D01*
X91157Y-55265D01*
X91102Y-55276D01*
X91050Y-55282D01*
X90999Y-55283D01*
X90949Y-55279D01*
X90901Y-55269D01*
X90854Y-55255D01*
X90808Y-55235D01*
X90763Y-55210D01*
X90719Y-55180D01*
X90714Y-55177D01*
X90673Y-55143D01*
X90634Y-55104D01*
X90600Y-55062D01*
X90569Y-55016D01*
X90542Y-54966D01*
X90519Y-54913D01*
X90499Y-54856D01*
X90497Y-54850D01*
X90485Y-54800D01*
X90474Y-54747D01*
X90467Y-54691D01*
X90461Y-54634D01*
X90459Y-54577D01*
X90459Y-54521D01*
X90462Y-54467D01*
X90468Y-54416D01*
X90470Y-54408D01*
X90472Y-54393D01*
X90475Y-54378D01*
X90479Y-54364D01*
X90482Y-54352D01*
X90485Y-54343D01*
X90487Y-54338D01*
X90487Y-54338D01*
X90487Y-54338D01*
X90487Y-54338D01*
G37*
G36*
X90502Y-57046D02*
X90515Y-57046D01*
X90527Y-57046D01*
X90538Y-57065D01*
X90545Y-57078D01*
X90555Y-57093D01*
X90566Y-57111D01*
X90579Y-57131D01*
X90592Y-57151D01*
X90606Y-57171D01*
X90618Y-57189D01*
X90630Y-57205D01*
X90634Y-57211D01*
X90665Y-57250D01*
X90696Y-57288D01*
X90728Y-57322D01*
X90759Y-57354D01*
X90789Y-57382D01*
X90818Y-57405D01*
X90838Y-57420D01*
X90878Y-57445D01*
X90922Y-57468D01*
X90969Y-57489D01*
X91016Y-57506D01*
X91063Y-57519D01*
X91067Y-57520D01*
X91124Y-57531D01*
X91180Y-57537D01*
X91235Y-57537D01*
X91289Y-57532D01*
X91342Y-57522D01*
X91394Y-57506D01*
X91445Y-57486D01*
X91495Y-57460D01*
X91531Y-57437D01*
X91543Y-57429D01*
X91558Y-57418D01*
X91575Y-57405D01*
X91594Y-57391D01*
X91612Y-57377D01*
X91630Y-57363D01*
X91660Y-57339D01*
X91687Y-57319D01*
X91711Y-57302D01*
X91733Y-57287D01*
X91753Y-57275D01*
X91771Y-57266D01*
X91790Y-57258D01*
X91808Y-57252D01*
X91826Y-57247D01*
X91846Y-57243D01*
X91850Y-57242D01*
X91884Y-57240D01*
X91917Y-57242D01*
X91948Y-57249D01*
X91977Y-57260D01*
X92003Y-57276D01*
X92027Y-57295D01*
X92047Y-57319D01*
X92064Y-57346D01*
X92077Y-57376D01*
X92079Y-57382D01*
X92083Y-57399D01*
X92085Y-57419D01*
X92086Y-57441D01*
X92085Y-57461D01*
X92083Y-57475D01*
X92074Y-57510D01*
X92061Y-57543D01*
X92044Y-57573D01*
X92023Y-57600D01*
X92011Y-57613D01*
X91985Y-57635D01*
X91957Y-57652D01*
X91926Y-57666D01*
X91891Y-57676D01*
X91853Y-57683D01*
X91811Y-57687D01*
X91809Y-57687D01*
X91780Y-57687D01*
X91752Y-57686D01*
X91726Y-57683D01*
X91703Y-57678D01*
X91684Y-57671D01*
X91671Y-57665D01*
X91664Y-57660D01*
X91657Y-57654D01*
X91651Y-57649D01*
X91647Y-57644D01*
X91646Y-57642D01*
X91648Y-57640D01*
X91654Y-57636D01*
X91660Y-57632D01*
X91669Y-57627D01*
X91677Y-57625D01*
X91685Y-57625D01*
X91686Y-57626D01*
X91695Y-57626D01*
X91706Y-57624D01*
X91718Y-57620D01*
X91750Y-57606D01*
X91778Y-57591D01*
X91802Y-57574D01*
X91821Y-57556D01*
X91836Y-57536D01*
X91838Y-57532D01*
X91841Y-57525D01*
X91844Y-57518D01*
X91845Y-57510D01*
X91845Y-57499D01*
X91845Y-57494D01*
X91845Y-57481D01*
X91844Y-57472D01*
X91842Y-57464D01*
X91838Y-57456D01*
X91837Y-57455D01*
X91827Y-57439D01*
X91813Y-57426D01*
X91797Y-57417D01*
X91780Y-57414D01*
X91766Y-57414D01*
X91752Y-57417D01*
X91737Y-57424D01*
X91720Y-57433D01*
X91705Y-57443D01*
X91695Y-57451D01*
X91688Y-57458D01*
X91679Y-57467D01*
X91668Y-57480D01*
X91656Y-57494D01*
X91644Y-57509D01*
X91635Y-57520D01*
X91621Y-57537D01*
X91607Y-57554D01*
X91594Y-57570D01*
X91582Y-57585D01*
X91572Y-57597D01*
X91567Y-57602D01*
X91521Y-57654D01*
X91475Y-57700D01*
X91429Y-57742D01*
X91383Y-57778D01*
X91337Y-57809D01*
X91291Y-57836D01*
X91244Y-57857D01*
X91197Y-57874D01*
X91153Y-57886D01*
X91136Y-57889D01*
X91116Y-57891D01*
X91093Y-57892D01*
X91069Y-57893D01*
X91045Y-57894D01*
X91023Y-57893D01*
X91004Y-57892D01*
X90999Y-57891D01*
X90942Y-57882D01*
X90888Y-57868D01*
X90837Y-57850D01*
X90789Y-57828D01*
X90745Y-57802D01*
X90703Y-57771D01*
X90665Y-57736D01*
X90630Y-57696D01*
X90598Y-57653D01*
X90585Y-57632D01*
X90567Y-57600D01*
X90551Y-57569D01*
X90538Y-57538D01*
X90527Y-57506D01*
X90517Y-57473D01*
X90510Y-57437D01*
X90504Y-57399D01*
X90500Y-57357D01*
X90496Y-57311D01*
X90494Y-57261D01*
X90494Y-57260D01*
X90494Y-57241D01*
X90494Y-57219D01*
X90494Y-57196D01*
X90495Y-57171D01*
X90495Y-57147D01*
X90496Y-57123D01*
X90497Y-57102D01*
X90498Y-57083D01*
X90500Y-57067D01*
X90501Y-57058D01*
X90502Y-57046D01*
X90502Y-57046D01*
X90502Y-57046D01*
G37*
G36*
X91040Y-53682D02*
X91086Y-53684D01*
X91131Y-53691D01*
X91176Y-53700D01*
X91229Y-53716D01*
X91229Y-53716D01*
X90971Y-53716D01*
X90922Y-53720D01*
X90882Y-53727D01*
X90836Y-53740D01*
X90791Y-53756D01*
X90748Y-53777D01*
X90708Y-53801D01*
X90670Y-53828D01*
X90635Y-53858D01*
X90604Y-53891D01*
X90578Y-53925D01*
X90577Y-53926D01*
X90557Y-53962D01*
X90541Y-54000D01*
X90529Y-54041D01*
X90521Y-54085D01*
X90519Y-54129D01*
X90520Y-54176D01*
X90527Y-54224D01*
X90535Y-54263D01*
X90548Y-54305D01*
X90564Y-54346D01*
X90583Y-54385D01*
X90605Y-54420D01*
X90616Y-54437D01*
X90631Y-54455D01*
X90647Y-54473D01*
X90665Y-54491D01*
X90683Y-54508D01*
X90700Y-54523D01*
X90717Y-54536D01*
X90733Y-54547D01*
X90747Y-54555D01*
X90759Y-54559D01*
X90764Y-54560D01*
X90769Y-54559D01*
X90771Y-54556D01*
X90772Y-54550D01*
X90770Y-54543D01*
X90767Y-54532D01*
X90762Y-54520D01*
X90761Y-54518D01*
X90750Y-54495D01*
X90763Y-54497D01*
X90770Y-54498D01*
X90781Y-54500D01*
X90795Y-54503D01*
X90810Y-54506D01*
X90816Y-54508D01*
X90892Y-54524D01*
X90967Y-54537D01*
X91040Y-54548D01*
X91086Y-54554D01*
X91142Y-54560D01*
X91201Y-54563D01*
X91261Y-54564D01*
X91324Y-54564D01*
X91390Y-54561D01*
X91459Y-54556D01*
X91532Y-54549D01*
X91609Y-54540D01*
X91690Y-54528D01*
X91756Y-54518D01*
X91786Y-54513D01*
X91811Y-54508D01*
X91833Y-54503D01*
X91852Y-54498D01*
X91869Y-54493D01*
X91885Y-54487D01*
X91901Y-54480D01*
X91913Y-54474D01*
X91943Y-54456D01*
X91968Y-54436D01*
X91989Y-54413D01*
X92006Y-54387D01*
X92010Y-54379D01*
X92018Y-54358D01*
X92026Y-54334D01*
X92032Y-54307D01*
X92037Y-54278D01*
X92041Y-54250D01*
X92043Y-54221D01*
X92043Y-54194D01*
X92041Y-54170D01*
X92038Y-54150D01*
X92038Y-54149D01*
X92029Y-54125D01*
X92018Y-54105D01*
X92004Y-54089D01*
X91991Y-54079D01*
X91986Y-54076D01*
X91981Y-54074D01*
X91975Y-54073D01*
X91967Y-54072D01*
X91956Y-54072D01*
X91945Y-54072D01*
X91929Y-54072D01*
X91915Y-54073D01*
X91902Y-54075D01*
X91888Y-54078D01*
X91883Y-54079D01*
X91858Y-54086D01*
X91833Y-54093D01*
X91807Y-54101D01*
X91781Y-54109D01*
X91758Y-54117D01*
X91738Y-54125D01*
X91725Y-54130D01*
X91712Y-54135D01*
X91699Y-54140D01*
X91689Y-54143D01*
X91682Y-54145D01*
X91681Y-54145D01*
X91674Y-54145D01*
X91669Y-54143D01*
X91664Y-54138D01*
X91660Y-54133D01*
X91653Y-54126D01*
X91645Y-54115D01*
X91635Y-54104D01*
X91631Y-54098D01*
X91592Y-54054D01*
X91552Y-54010D01*
X91510Y-53968D01*
X91468Y-53929D01*
X91426Y-53892D01*
X91384Y-53859D01*
X91344Y-53829D01*
X91304Y-53803D01*
X91266Y-53781D01*
X91262Y-53779D01*
X91218Y-53758D01*
X91171Y-53742D01*
X91122Y-53729D01*
X91072Y-53721D01*
X91021Y-53716D01*
X90971Y-53716D01*
X91229Y-53716D01*
X91283Y-53736D01*
X91337Y-53760D01*
X91390Y-53788D01*
X91443Y-53819D01*
X91493Y-53852D01*
X91540Y-53888D01*
X91584Y-53926D01*
X91623Y-53965D01*
X91631Y-53973D01*
X91642Y-53985D01*
X91653Y-53998D01*
X91664Y-54012D01*
X91674Y-54025D01*
X91683Y-54036D01*
X91689Y-54045D01*
X91691Y-54048D01*
X91694Y-54049D01*
X91701Y-54048D01*
X91712Y-54046D01*
X91724Y-54043D01*
X91738Y-54040D01*
X91755Y-54036D01*
X91774Y-54032D01*
X91792Y-54029D01*
X91796Y-54028D01*
X91811Y-54026D01*
X91824Y-54024D01*
X91837Y-54023D01*
X91850Y-54022D01*
X91865Y-54021D01*
X91884Y-54021D01*
X91895Y-54021D01*
X91917Y-54021D01*
X91935Y-54021D01*
X91950Y-54023D01*
X91963Y-54024D01*
X91974Y-54027D01*
X91985Y-54031D01*
X91997Y-54036D01*
X92008Y-54041D01*
X92032Y-54054D01*
X92051Y-54071D01*
X92066Y-54091D01*
X92077Y-54114D01*
X92080Y-54127D01*
X92082Y-54137D01*
X92084Y-54152D01*
X92085Y-54170D01*
X92086Y-54189D01*
X92086Y-54209D01*
X92086Y-54228D01*
X92085Y-54245D01*
X92084Y-54256D01*
X92078Y-54296D01*
X92067Y-54334D01*
X92051Y-54368D01*
X92031Y-54400D01*
X92007Y-54429D01*
X91979Y-54455D01*
X91947Y-54477D01*
X91911Y-54495D01*
X91871Y-54510D01*
X91860Y-54514D01*
X91824Y-54523D01*
X91784Y-54532D01*
X91740Y-54541D01*
X91692Y-54549D01*
X91642Y-54557D01*
X91591Y-54564D01*
X91537Y-54570D01*
X91484Y-54576D01*
X91431Y-54580D01*
X91378Y-54584D01*
X91327Y-54587D01*
X91279Y-54589D01*
X91239Y-54589D01*
X91205Y-54588D01*
X91168Y-54587D01*
X91129Y-54584D01*
X91089Y-54580D01*
X91048Y-54576D01*
X91009Y-54571D01*
X90972Y-54565D01*
X90938Y-54559D01*
X90909Y-54553D01*
X90908Y-54553D01*
X90896Y-54550D01*
X90887Y-54548D01*
X90882Y-54547D01*
X90879Y-54547D01*
X90879Y-54548D01*
X90879Y-54549D01*
X90879Y-54550D01*
X90877Y-54559D01*
X90872Y-54570D01*
X90866Y-54582D01*
X90859Y-54593D01*
X90855Y-54597D01*
X90843Y-54607D01*
X90831Y-54613D01*
X90816Y-54615D01*
X90798Y-54615D01*
X90797Y-54615D01*
X90773Y-54611D01*
X90748Y-54601D01*
X90722Y-54587D01*
X90696Y-54568D01*
X90671Y-54545D01*
X90645Y-54518D01*
X90621Y-54487D01*
X90597Y-54453D01*
X90575Y-54415D01*
X90564Y-54395D01*
X90542Y-54350D01*
X90524Y-54307D01*
X90510Y-54267D01*
X90499Y-54228D01*
X90493Y-54190D01*
X90490Y-54152D01*
X90490Y-54115D01*
X90491Y-54104D01*
X90497Y-54054D01*
X90508Y-54007D01*
X90523Y-53962D01*
X90542Y-53920D01*
X90566Y-53881D01*
X90594Y-53845D01*
X90611Y-53827D01*
X90638Y-53803D01*
X90666Y-53781D01*
X90697Y-53762D01*
X90731Y-53745D01*
X90769Y-53730D01*
X90812Y-53716D01*
X90840Y-53708D01*
X90894Y-53696D01*
X90944Y-53688D01*
X90993Y-53683D01*
X91040Y-53682D01*
X91040Y-53682D01*
X91040Y-53682D01*
G37*
G36*
X90594Y-52995D02*
X90618Y-52995D01*
X90643Y-52998D01*
X90668Y-53003D01*
X90692Y-53010D01*
X90715Y-53019D01*
X90735Y-53030D01*
X90736Y-53031D01*
X90741Y-53034D01*
X90596Y-53034D01*
X90573Y-53037D01*
X90552Y-53044D01*
X90535Y-53055D01*
X90527Y-53063D01*
X90517Y-53076D01*
X90506Y-53093D01*
X90496Y-53114D01*
X90486Y-53137D01*
X90477Y-53162D01*
X90470Y-53187D01*
X90464Y-53212D01*
X90464Y-53213D01*
X90462Y-53223D01*
X90460Y-53232D01*
X90459Y-53242D01*
X90458Y-53253D01*
X90458Y-53266D01*
X90458Y-53282D01*
X90458Y-53303D01*
X90458Y-53308D01*
X90458Y-53329D01*
X90458Y-53346D01*
X90458Y-53359D01*
X90459Y-53370D01*
X90460Y-53380D01*
X90461Y-53389D01*
X90463Y-53400D01*
X90465Y-53409D01*
X90470Y-53429D01*
X90475Y-53446D01*
X90480Y-53459D01*
X90487Y-53470D01*
X90495Y-53480D01*
X90500Y-53484D01*
X90511Y-53494D01*
X90522Y-53501D01*
X90534Y-53507D01*
X90550Y-53513D01*
X90555Y-53515D01*
X90573Y-53519D01*
X90592Y-53521D01*
X90611Y-53521D01*
X90628Y-53519D01*
X90642Y-53516D01*
X90645Y-53515D01*
X90660Y-53506D01*
X90672Y-53494D01*
X90681Y-53480D01*
X90689Y-53461D01*
X90690Y-53457D01*
X90693Y-53447D01*
X90698Y-53438D01*
X90701Y-53434D01*
X90708Y-53425D01*
X90733Y-53427D01*
X90740Y-53427D01*
X90748Y-53428D01*
X90758Y-53430D01*
X90771Y-53433D01*
X90787Y-53436D01*
X90805Y-53441D01*
X90828Y-53446D01*
X90855Y-53453D01*
X90884Y-53460D01*
X90914Y-53468D01*
X90946Y-53476D01*
X90979Y-53484D01*
X91012Y-53492D01*
X91044Y-53500D01*
X91073Y-53507D01*
X91099Y-53513D01*
X91109Y-53515D01*
X91165Y-53529D01*
X91216Y-53541D01*
X91263Y-53553D01*
X91306Y-53564D01*
X91345Y-53575D01*
X91381Y-53585D01*
X91414Y-53595D01*
X91444Y-53605D01*
X91472Y-53615D01*
X91498Y-53625D01*
X91523Y-53635D01*
X91547Y-53645D01*
X91570Y-53656D01*
X91570Y-53656D01*
X91597Y-53670D01*
X91623Y-53685D01*
X91645Y-53700D01*
X91663Y-53714D01*
X91671Y-53721D01*
X91678Y-53728D01*
X91683Y-53735D01*
X91687Y-53744D01*
X91690Y-53754D01*
X91693Y-53767D01*
X91696Y-53785D01*
X91698Y-53800D01*
X91701Y-53821D01*
X91705Y-53838D01*
X91709Y-53851D01*
X91714Y-53862D01*
X91721Y-53871D01*
X91730Y-53879D01*
X91733Y-53881D01*
X91751Y-53892D01*
X91773Y-53901D01*
X91798Y-53909D01*
X91825Y-53914D01*
X91853Y-53917D01*
X91880Y-53917D01*
X91906Y-53915D01*
X91930Y-53911D01*
X91941Y-53907D01*
X91960Y-53897D01*
X91977Y-53882D01*
X91992Y-53863D01*
X92004Y-53838D01*
X92014Y-53809D01*
X92021Y-53775D01*
X92026Y-53741D01*
X92028Y-53713D01*
X92030Y-53683D01*
X92031Y-53650D01*
X92032Y-53616D01*
X92032Y-53582D01*
X92032Y-53549D01*
X92032Y-53518D01*
X92030Y-53490D01*
X92028Y-53466D01*
X92028Y-53465D01*
X92026Y-53442D01*
X92022Y-53419D01*
X92018Y-53397D01*
X92015Y-53378D01*
X92011Y-53363D01*
X92009Y-53358D01*
X92000Y-53338D01*
X91987Y-53321D01*
X91969Y-53307D01*
X91947Y-53297D01*
X91921Y-53290D01*
X91891Y-53286D01*
X91856Y-53285D01*
X91850Y-53285D01*
X91827Y-53286D01*
X91807Y-53289D01*
X91791Y-53293D01*
X91778Y-53300D01*
X91766Y-53310D01*
X91756Y-53324D01*
X91745Y-53341D01*
X91734Y-53363D01*
X91726Y-53379D01*
X91720Y-53392D01*
X91714Y-53400D01*
X91709Y-53406D01*
X91703Y-53409D01*
X91696Y-53410D01*
X91687Y-53409D01*
X91684Y-53409D01*
X91670Y-53407D01*
X91652Y-53403D01*
X91628Y-53398D01*
X91600Y-53391D01*
X91566Y-53383D01*
X91528Y-53372D01*
X91485Y-53360D01*
X91436Y-53347D01*
X91384Y-53332D01*
X91340Y-53319D01*
X91293Y-53305D01*
X91252Y-53293D01*
X91214Y-53283D01*
X91179Y-53273D01*
X91146Y-53264D01*
X91116Y-53257D01*
X91087Y-53249D01*
X91058Y-53243D01*
X91030Y-53236D01*
X91001Y-53230D01*
X90970Y-53224D01*
X90938Y-53218D01*
X90903Y-53212D01*
X90875Y-53207D01*
X90847Y-53202D01*
X90824Y-53197D01*
X90806Y-53193D01*
X90791Y-53190D01*
X90780Y-53187D01*
X90772Y-53184D01*
X90767Y-53181D01*
X90760Y-53174D01*
X90754Y-53162D01*
X90748Y-53146D01*
X90743Y-53126D01*
X90742Y-53123D01*
X90740Y-53111D01*
X90736Y-53099D01*
X90733Y-53091D01*
X90731Y-53088D01*
X90725Y-53080D01*
X90713Y-53071D01*
X90699Y-53063D01*
X90682Y-53054D01*
X90679Y-53053D01*
X90649Y-53043D01*
X90621Y-53036D01*
X90596Y-53034D01*
X90741Y-53034D01*
X90744Y-53037D01*
X90751Y-53043D01*
X90756Y-53050D01*
X90760Y-53058D01*
X90764Y-53069D01*
X90768Y-53083D01*
X90771Y-53101D01*
X90774Y-53119D01*
X90778Y-53137D01*
X90783Y-53150D01*
X90790Y-53158D01*
X90795Y-53161D01*
X90799Y-53163D01*
X90808Y-53164D01*
X90821Y-53167D01*
X90837Y-53170D01*
X90856Y-53174D01*
X90878Y-53178D01*
X90901Y-53182D01*
X90912Y-53184D01*
X90965Y-53194D01*
X91014Y-53203D01*
X91058Y-53211D01*
X91099Y-53219D01*
X91137Y-53227D01*
X91173Y-53234D01*
X91207Y-53241D01*
X91240Y-53249D01*
X91273Y-53256D01*
X91305Y-53264D01*
X91338Y-53272D01*
X91373Y-53280D01*
X91409Y-53290D01*
X91448Y-53300D01*
X91461Y-53303D01*
X91498Y-53313D01*
X91530Y-53321D01*
X91558Y-53329D01*
X91581Y-53335D01*
X91601Y-53340D01*
X91617Y-53344D01*
X91630Y-53347D01*
X91640Y-53349D01*
X91649Y-53351D01*
X91655Y-53352D01*
X91659Y-53353D01*
X91662Y-53353D01*
X91665Y-53352D01*
X91666Y-53352D01*
X91669Y-53349D01*
X91674Y-53343D01*
X91680Y-53334D01*
X91685Y-53325D01*
X91699Y-53303D01*
X91713Y-53286D01*
X91727Y-53272D01*
X91743Y-53262D01*
X91760Y-53255D01*
X91770Y-53253D01*
X91785Y-53250D01*
X91804Y-53248D01*
X91825Y-53246D01*
X91847Y-53245D01*
X91870Y-53244D01*
X91893Y-53243D01*
X91900Y-53243D01*
X91931Y-53245D01*
X91959Y-53248D01*
X91982Y-53254D01*
X92002Y-53262D01*
X92019Y-53273D01*
X92025Y-53277D01*
X92036Y-53290D01*
X92046Y-53307D01*
X92055Y-53329D01*
X92062Y-53356D01*
X92069Y-53387D01*
X92072Y-53410D01*
X92074Y-53424D01*
X92075Y-53442D01*
X92076Y-53463D01*
X92077Y-53487D01*
X92078Y-53512D01*
X92078Y-53536D01*
X92078Y-53560D01*
X92078Y-53582D01*
X92077Y-53602D01*
X92076Y-53613D01*
X92073Y-53652D01*
X92068Y-53690D01*
X92063Y-53726D01*
X92057Y-53760D01*
X92051Y-53791D01*
X92044Y-53819D01*
X92037Y-53842D01*
X92032Y-53854D01*
X92018Y-53881D01*
X92000Y-53904D01*
X91978Y-53924D01*
X91954Y-53939D01*
X91926Y-53951D01*
X91921Y-53952D01*
X91912Y-53954D01*
X91902Y-53955D01*
X91889Y-53956D01*
X91872Y-53957D01*
X91863Y-53957D01*
X91846Y-53956D01*
X91833Y-53956D01*
X91822Y-53955D01*
X91812Y-53954D01*
X91802Y-53951D01*
X91794Y-53949D01*
X91776Y-53943D01*
X91756Y-53936D01*
X91737Y-53927D01*
X91721Y-53918D01*
X91708Y-53910D01*
X91699Y-53902D01*
X91691Y-53892D01*
X91685Y-53879D01*
X91681Y-53862D01*
X91678Y-53848D01*
X91672Y-53819D01*
X91664Y-53795D01*
X91656Y-53774D01*
X91645Y-53757D01*
X91637Y-53748D01*
X91623Y-53735D01*
X91605Y-53721D01*
X91582Y-53707D01*
X91554Y-53692D01*
X91523Y-53677D01*
X91488Y-53662D01*
X91472Y-53656D01*
X91436Y-53642D01*
X91396Y-53628D01*
X91351Y-53613D01*
X91303Y-53597D01*
X91251Y-53582D01*
X91197Y-53566D01*
X91141Y-53550D01*
X91084Y-53535D01*
X91026Y-53520D01*
X90967Y-53505D01*
X90909Y-53492D01*
X90851Y-53479D01*
X90825Y-53473D01*
X90800Y-53468D01*
X90780Y-53464D01*
X90764Y-53461D01*
X90751Y-53459D01*
X90742Y-53458D01*
X90735Y-53457D01*
X90731Y-53458D01*
X90729Y-53458D01*
X90718Y-53465D01*
X90709Y-53476D01*
X90704Y-53488D01*
X90695Y-53509D01*
X90683Y-53527D01*
X90668Y-53540D01*
X90650Y-53549D01*
X90631Y-53555D01*
X90622Y-53556D01*
X90609Y-53556D01*
X90593Y-53557D01*
X90576Y-53556D01*
X90575Y-53556D01*
X90554Y-53555D01*
X90537Y-53554D01*
X90524Y-53551D01*
X90512Y-53546D01*
X90502Y-53540D01*
X90492Y-53532D01*
X90487Y-53526D01*
X90472Y-53509D01*
X90460Y-53489D01*
X90451Y-53465D01*
X90443Y-53437D01*
X90437Y-53405D01*
X90434Y-53368D01*
X90432Y-53327D01*
X90432Y-53308D01*
X90432Y-53281D01*
X90433Y-53258D01*
X90434Y-53237D01*
X90436Y-53217D01*
X90440Y-53196D01*
X90443Y-53177D01*
X90452Y-53140D01*
X90464Y-53106D01*
X90478Y-53076D01*
X90494Y-53050D01*
X90512Y-53029D01*
X90531Y-53012D01*
X90537Y-53008D01*
X90552Y-53001D01*
X90572Y-52996D01*
X90594Y-52995D01*
X90594Y-52995D01*
X90594Y-52995D01*
G37*
G36*
X90618Y-55673D02*
X90632Y-55674D01*
X90644Y-55674D01*
X90653Y-55676D01*
X90662Y-55678D01*
X90674Y-55682D01*
X90675Y-55682D01*
X90700Y-55692D01*
X90721Y-55702D01*
X90737Y-55712D01*
X90749Y-55723D01*
X90754Y-55731D01*
X90756Y-55736D01*
X90759Y-55746D01*
X90761Y-55757D01*
X90762Y-55761D01*
X90766Y-55780D01*
X90772Y-55796D01*
X90778Y-55809D01*
X90784Y-55817D01*
X90788Y-55820D01*
X90792Y-55822D01*
X90798Y-55824D01*
X90805Y-55826D01*
X90815Y-55829D01*
X90828Y-55832D01*
X90844Y-55835D01*
X90864Y-55839D01*
X90888Y-55843D01*
X90916Y-55848D01*
X90961Y-55857D01*
X91003Y-55865D01*
X91041Y-55872D01*
X91077Y-55880D01*
X91111Y-55888D01*
X91146Y-55897D01*
X91182Y-55906D01*
X91220Y-55916D01*
X91260Y-55928D01*
X91291Y-55937D01*
X91351Y-55954D01*
X91407Y-55971D01*
X91458Y-55985D01*
X91505Y-55998D01*
X91547Y-56010D01*
X91585Y-56020D01*
X91618Y-56028D01*
X91646Y-56035D01*
X91669Y-56041D01*
X91687Y-56044D01*
X91690Y-56045D01*
X91704Y-56047D01*
X91715Y-56047D01*
X91723Y-56046D01*
X91730Y-56041D01*
X91736Y-56033D01*
X91742Y-56021D01*
X91749Y-56005D01*
X91760Y-55982D01*
X91772Y-55963D01*
X91784Y-55948D01*
X91798Y-55937D01*
X91813Y-55930D01*
X91821Y-55927D01*
X91833Y-55924D01*
X91850Y-55923D01*
X91869Y-55922D01*
X91888Y-55922D01*
X91908Y-55923D01*
X91926Y-55925D01*
X91941Y-55927D01*
X91946Y-55928D01*
X91971Y-55937D01*
X91992Y-55948D01*
X92009Y-55961D01*
X92021Y-55977D01*
X92022Y-55980D01*
X92028Y-55995D01*
X92034Y-56014D01*
X92039Y-56038D01*
X92043Y-56066D01*
X92047Y-56097D01*
X92050Y-56128D01*
X92050Y-56141D01*
X92051Y-56158D01*
X92051Y-56179D01*
X92052Y-56201D01*
X92052Y-56225D01*
X92052Y-56248D01*
X92052Y-56269D01*
X92051Y-56288D01*
X92051Y-56303D01*
X92051Y-56307D01*
X92048Y-56348D01*
X92044Y-56383D01*
X92040Y-56414D01*
X92036Y-56440D01*
X92030Y-56461D01*
X92026Y-56474D01*
X92015Y-56496D01*
X92002Y-56516D01*
X91986Y-56532D01*
X91969Y-56544D01*
X91968Y-56545D01*
X91953Y-56550D01*
X91934Y-56554D01*
X91911Y-56556D01*
X91889Y-56557D01*
X91855Y-56556D01*
X91824Y-56552D01*
X91796Y-56546D01*
X91771Y-56538D01*
X91751Y-56527D01*
X91734Y-56515D01*
X91722Y-56501D01*
X91716Y-56489D01*
X91713Y-56481D01*
X91711Y-56469D01*
X91708Y-56455D01*
X91705Y-56441D01*
X91705Y-56441D01*
X91702Y-56421D01*
X91699Y-56406D01*
X91696Y-56395D01*
X91691Y-56385D01*
X91686Y-56377D01*
X91678Y-56369D01*
X91668Y-56360D01*
X91658Y-56352D01*
X91629Y-56332D01*
X91597Y-56312D01*
X91561Y-56293D01*
X91521Y-56274D01*
X91476Y-56256D01*
X91428Y-56238D01*
X91374Y-56221D01*
X91316Y-56204D01*
X91252Y-56187D01*
X91205Y-56175D01*
X91153Y-56163D01*
X91104Y-56151D01*
X91057Y-56139D01*
X91013Y-56129D01*
X90972Y-56119D01*
X90935Y-56109D01*
X90902Y-56101D01*
X90874Y-56094D01*
X90850Y-56088D01*
X90850Y-56088D01*
X90830Y-56083D01*
X90811Y-56078D01*
X90793Y-56074D01*
X90777Y-56071D01*
X90765Y-56068D01*
X90759Y-56067D01*
X90744Y-56066D01*
X90732Y-56067D01*
X90724Y-56070D01*
X90717Y-56078D01*
X90712Y-56090D01*
X90708Y-56101D01*
X90700Y-56122D01*
X90689Y-56138D01*
X90675Y-56150D01*
X90658Y-56157D01*
X90639Y-56161D01*
X90617Y-56161D01*
X90594Y-56159D01*
X90571Y-56153D01*
X90553Y-56146D01*
X90536Y-56137D01*
X90521Y-56127D01*
X90509Y-56114D01*
X90499Y-56099D01*
X90490Y-56081D01*
X90483Y-56059D01*
X90476Y-56032D01*
X90473Y-56021D01*
X90466Y-55975D01*
X90465Y-55929D01*
X90468Y-55884D01*
X90477Y-55840D01*
X90492Y-55795D01*
X90511Y-55752D01*
X90518Y-55739D01*
X90531Y-55719D01*
X90543Y-55703D01*
X90555Y-55691D01*
X90568Y-55682D01*
X90571Y-55681D01*
X90577Y-55677D01*
X90584Y-55675D01*
X90590Y-55674D01*
X90599Y-55674D01*
X90611Y-55673D01*
X90618Y-55673D01*
X90618Y-55673D01*
X90618Y-55673D01*
G37*
G36*
X91007Y-56340D02*
X91034Y-56341D01*
X91059Y-56342D01*
X91081Y-56344D01*
X91086Y-56344D01*
X91153Y-56354D01*
X91221Y-56369D01*
X91290Y-56389D01*
X91314Y-56396D01*
X91365Y-56414D01*
X91411Y-56434D01*
X91454Y-56455D01*
X91494Y-56478D01*
X91531Y-56504D01*
X91562Y-56528D01*
X91574Y-56539D01*
X91590Y-56553D01*
X91607Y-56569D01*
X91625Y-56587D01*
X91644Y-56606D01*
X91662Y-56624D01*
X91679Y-56642D01*
X91693Y-56657D01*
X90835Y-56657D01*
X90800Y-56658D01*
X90769Y-56661D01*
X90741Y-56666D01*
X90717Y-56674D01*
X90696Y-56685D01*
X90678Y-56698D01*
X90668Y-56708D01*
X90650Y-56731D01*
X90637Y-56756D01*
X90629Y-56784D01*
X90625Y-56814D01*
X90626Y-56847D01*
X90631Y-56883D01*
X90641Y-56921D01*
X90644Y-56930D01*
X90648Y-56943D01*
X90654Y-56958D01*
X90661Y-56974D01*
X90668Y-56989D01*
X90674Y-57003D01*
X90681Y-57014D01*
X90686Y-57023D01*
X90690Y-57029D01*
X90691Y-57030D01*
X90695Y-57030D01*
X90703Y-57029D01*
X90711Y-57027D01*
X90720Y-57025D01*
X90733Y-57021D01*
X90749Y-57017D01*
X90770Y-57011D01*
X90792Y-57005D01*
X90817Y-56998D01*
X90843Y-56991D01*
X90870Y-56984D01*
X90896Y-56976D01*
X90922Y-56969D01*
X90947Y-56962D01*
X90970Y-56956D01*
X90991Y-56950D01*
X91008Y-56945D01*
X91022Y-56941D01*
X91028Y-56939D01*
X91046Y-56934D01*
X91066Y-56927D01*
X91088Y-56921D01*
X91110Y-56914D01*
X91132Y-56907D01*
X91153Y-56900D01*
X91173Y-56893D01*
X91192Y-56887D01*
X91209Y-56881D01*
X91222Y-56876D01*
X91232Y-56873D01*
X91238Y-56870D01*
X91240Y-56869D01*
X91238Y-56867D01*
X91233Y-56861D01*
X91227Y-56853D01*
X91220Y-56844D01*
X91185Y-56806D01*
X91149Y-56772D01*
X91112Y-56742D01*
X91073Y-56716D01*
X91034Y-56695D01*
X90994Y-56678D01*
X90955Y-56667D01*
X90948Y-56666D01*
X90939Y-56664D01*
X90926Y-56663D01*
X90910Y-56661D01*
X90892Y-56659D01*
X90875Y-56658D01*
X90835Y-56657D01*
X91693Y-56657D01*
X91693Y-56658D01*
X91705Y-56671D01*
X91709Y-56675D01*
X91730Y-56701D01*
X91739Y-56697D01*
X91746Y-56694D01*
X91756Y-56690D01*
X91768Y-56686D01*
X91778Y-56682D01*
X91816Y-56670D01*
X91850Y-56662D01*
X91881Y-56658D01*
X91909Y-56658D01*
X91933Y-56662D01*
X91949Y-56668D01*
X91971Y-56680D01*
X91990Y-56698D01*
X92008Y-56719D01*
X92022Y-56745D01*
X92034Y-56773D01*
X92042Y-56804D01*
X92047Y-56835D01*
X92048Y-56847D01*
X92049Y-56856D01*
X92049Y-56864D01*
X92049Y-56872D01*
X92049Y-56882D01*
X92048Y-56895D01*
X92047Y-56907D01*
X92043Y-56944D01*
X92037Y-56977D01*
X92029Y-57008D01*
X92020Y-57034D01*
X92009Y-57056D01*
X91994Y-57078D01*
X91974Y-57097D01*
X91952Y-57112D01*
X91945Y-57115D01*
X91927Y-57123D01*
X91904Y-57132D01*
X91877Y-57141D01*
X91848Y-57150D01*
X91815Y-57159D01*
X91781Y-57168D01*
X91746Y-57176D01*
X91711Y-57184D01*
X91676Y-57191D01*
X91642Y-57198D01*
X91610Y-57203D01*
X91603Y-57204D01*
X91522Y-57213D01*
X91436Y-57219D01*
X91348Y-57222D01*
X91256Y-57220D01*
X91162Y-57216D01*
X91066Y-57208D01*
X90969Y-57197D01*
X90870Y-57182D01*
X90863Y-57181D01*
X90807Y-57172D01*
X90796Y-57179D01*
X90789Y-57184D01*
X90786Y-57188D01*
X90786Y-57192D01*
X90786Y-57193D01*
X90787Y-57199D01*
X90788Y-57208D01*
X90789Y-57220D01*
X90789Y-57222D01*
X90790Y-57236D01*
X90789Y-57246D01*
X90785Y-57251D01*
X90779Y-57254D01*
X90772Y-57255D01*
X90763Y-57254D01*
X90753Y-57250D01*
X90740Y-57243D01*
X90725Y-57232D01*
X90720Y-57229D01*
X90680Y-57195D01*
X90644Y-57159D01*
X90611Y-57119D01*
X90581Y-57075D01*
X90555Y-57027D01*
X90539Y-56993D01*
X90528Y-56964D01*
X90517Y-56936D01*
X90508Y-56909D01*
X90501Y-56884D01*
X90496Y-56863D01*
X90490Y-56819D01*
X90489Y-56774D01*
X90491Y-56730D01*
X90498Y-56687D01*
X90510Y-56645D01*
X90525Y-56605D01*
X90543Y-56567D01*
X90566Y-56532D01*
X90591Y-56500D01*
X90620Y-56471D01*
X90636Y-56458D01*
X90683Y-56426D01*
X90732Y-56399D01*
X90782Y-56377D01*
X90834Y-56360D01*
X90887Y-56348D01*
X90911Y-56344D01*
X90931Y-56343D01*
X90954Y-56341D01*
X90980Y-56341D01*
X91007Y-56340D01*
X91007Y-56340D01*
X91007Y-56340D01*
G37*
G36*
X91108Y-55525D02*
X91111Y-55525D01*
X91119Y-55527D01*
X91130Y-55530D01*
X91145Y-55534D01*
X91164Y-55539D01*
X91184Y-55544D01*
X91207Y-55550D01*
X91214Y-55552D01*
X91131Y-55552D01*
X91129Y-55553D01*
X91128Y-55555D01*
X91128Y-55561D01*
X91128Y-55571D01*
X91128Y-55584D01*
X91129Y-55617D01*
X91217Y-55639D01*
X91238Y-55645D01*
X91257Y-55650D01*
X91274Y-55654D01*
X91287Y-55658D01*
X91297Y-55661D01*
X91303Y-55663D01*
X91304Y-55664D01*
X91301Y-55665D01*
X91294Y-55668D01*
X91283Y-55672D01*
X91268Y-55677D01*
X91251Y-55682D01*
X91231Y-55689D01*
X91215Y-55694D01*
X91127Y-55723D01*
X91129Y-55750D01*
X91130Y-55762D01*
X91131Y-55772D01*
X91132Y-55778D01*
X91133Y-55780D01*
X91136Y-55780D01*
X91144Y-55778D01*
X91156Y-55775D01*
X91172Y-55770D01*
X91193Y-55764D01*
X91216Y-55756D01*
X91243Y-55748D01*
X91250Y-55746D01*
X91276Y-55737D01*
X91303Y-55729D01*
X91330Y-55720D01*
X91355Y-55712D01*
X91379Y-55704D01*
X91400Y-55697D01*
X91417Y-55692D01*
X91421Y-55690D01*
X91440Y-55684D01*
X91455Y-55679D01*
X91465Y-55676D01*
X91473Y-55672D01*
X91478Y-55670D01*
X91481Y-55667D01*
X91483Y-55665D01*
X91483Y-55665D01*
X91487Y-55657D01*
X91487Y-55652D01*
X91482Y-55648D01*
X91476Y-55645D01*
X91469Y-55642D01*
X91458Y-55639D01*
X91445Y-55635D01*
X91430Y-55631D01*
X91427Y-55630D01*
X91413Y-55626D01*
X91395Y-55622D01*
X91375Y-55617D01*
X91353Y-55611D01*
X91329Y-55605D01*
X91304Y-55598D01*
X91279Y-55592D01*
X91255Y-55585D01*
X91231Y-55579D01*
X91208Y-55573D01*
X91187Y-55567D01*
X91169Y-55563D01*
X91154Y-55559D01*
X91142Y-55555D01*
X91134Y-55553D01*
X91131Y-55552D01*
X91214Y-55552D01*
X91222Y-55554D01*
X91249Y-55561D01*
X91278Y-55569D01*
X91306Y-55576D01*
X91334Y-55583D01*
X91359Y-55590D01*
X91382Y-55596D01*
X91401Y-55601D01*
X91403Y-55601D01*
X91428Y-55608D01*
X91449Y-55614D01*
X91466Y-55619D01*
X91479Y-55623D01*
X91489Y-55627D01*
X91496Y-55631D01*
X91502Y-55636D01*
X91506Y-55639D01*
X91511Y-55646D01*
X91512Y-55654D01*
X91509Y-55663D01*
X91502Y-55675D01*
X91497Y-55682D01*
X91494Y-55688D01*
X91492Y-55690D01*
X91490Y-55691D01*
X91482Y-55693D01*
X91471Y-55697D01*
X91456Y-55702D01*
X91438Y-55708D01*
X91417Y-55715D01*
X91394Y-55722D01*
X91369Y-55730D01*
X91344Y-55738D01*
X91317Y-55747D01*
X91290Y-55755D01*
X91263Y-55764D01*
X91237Y-55772D01*
X91213Y-55780D01*
X91190Y-55787D01*
X91169Y-55794D01*
X91151Y-55800D01*
X91136Y-55804D01*
X91125Y-55808D01*
X91117Y-55810D01*
X91115Y-55811D01*
X91114Y-55808D01*
X91112Y-55801D01*
X91111Y-55788D01*
X91109Y-55771D01*
X91109Y-55766D01*
X91108Y-55751D01*
X91106Y-55737D01*
X91105Y-55725D01*
X91105Y-55717D01*
X91104Y-55715D01*
X91104Y-55713D01*
X91105Y-55711D01*
X91106Y-55709D01*
X91110Y-55707D01*
X91117Y-55704D01*
X91126Y-55701D01*
X91139Y-55696D01*
X91156Y-55690D01*
X91167Y-55687D01*
X91231Y-55665D01*
X91169Y-55649D01*
X91106Y-55633D01*
X91106Y-55579D01*
X91106Y-55563D01*
X91106Y-55548D01*
X91107Y-55537D01*
X91107Y-55529D01*
X91108Y-55525D01*
X91108Y-55525D01*
X91108Y-55525D01*
X91108Y-55525D01*
G37*
G36*
X91194Y-55319D02*
X91202Y-55327D01*
X91206Y-55332D01*
X91209Y-55338D01*
X91209Y-55340D01*
X91147Y-55340D01*
X91139Y-55340D01*
X91132Y-55341D01*
X91127Y-55344D01*
X91124Y-55348D01*
X91122Y-55355D01*
X91121Y-55365D01*
X91120Y-55379D01*
X91120Y-55397D01*
X91120Y-55414D01*
X91120Y-55436D01*
X91120Y-55453D01*
X91120Y-55467D01*
X91121Y-55477D01*
X91122Y-55484D01*
X91124Y-55489D01*
X91126Y-55493D01*
X91130Y-55497D01*
X91133Y-55499D01*
X91136Y-55501D01*
X91140Y-55503D01*
X91145Y-55504D01*
X91153Y-55505D01*
X91163Y-55506D01*
X91178Y-55506D01*
X91196Y-55507D01*
X91222Y-55508D01*
X91244Y-55508D01*
X91261Y-55508D01*
X91275Y-55507D01*
X91286Y-55504D01*
X91294Y-55501D01*
X91301Y-55496D01*
X91307Y-55491D01*
X91310Y-55487D01*
X91312Y-55484D01*
X91313Y-55480D01*
X91314Y-55474D01*
X91315Y-55465D01*
X91315Y-55452D01*
X91315Y-55439D01*
X91316Y-55399D01*
X91325Y-55391D01*
X91334Y-55383D01*
X91365Y-55384D01*
X91382Y-55385D01*
X91395Y-55386D01*
X91405Y-55390D01*
X91412Y-55394D01*
X91417Y-55401D01*
X91419Y-55403D01*
X91424Y-55416D01*
X91425Y-55428D01*
X91423Y-55440D01*
X91418Y-55451D01*
X91411Y-55459D01*
X91402Y-55463D01*
X91397Y-55463D01*
X91388Y-55464D01*
X91383Y-55467D01*
X91380Y-55472D01*
X91379Y-55482D01*
X91379Y-55488D01*
X91379Y-55507D01*
X91409Y-55506D01*
X91427Y-55505D01*
X91441Y-55502D01*
X91452Y-55498D01*
X91460Y-55492D01*
X91466Y-55485D01*
X91468Y-55481D01*
X91470Y-55478D01*
X91471Y-55473D01*
X91472Y-55466D01*
X91472Y-55457D01*
X91472Y-55444D01*
X91472Y-55427D01*
X91472Y-55410D01*
X91472Y-55397D01*
X91471Y-55387D01*
X91471Y-55380D01*
X91470Y-55375D01*
X91468Y-55371D01*
X91466Y-55367D01*
X91458Y-55356D01*
X91448Y-55348D01*
X91434Y-55343D01*
X91417Y-55341D01*
X91406Y-55341D01*
X91392Y-55341D01*
X91376Y-55342D01*
X91359Y-55343D01*
X91341Y-55344D01*
X91325Y-55346D01*
X91309Y-55347D01*
X91297Y-55349D01*
X91288Y-55351D01*
X91283Y-55353D01*
X91281Y-55354D01*
X91279Y-55357D01*
X91278Y-55360D01*
X91277Y-55366D01*
X91277Y-55376D01*
X91277Y-55389D01*
X91277Y-55395D01*
X91277Y-55414D01*
X91276Y-55428D01*
X91274Y-55438D01*
X91272Y-55446D01*
X91268Y-55451D01*
X91263Y-55455D01*
X91259Y-55457D01*
X91254Y-55459D01*
X91249Y-55460D01*
X91241Y-55461D01*
X91231Y-55462D01*
X91217Y-55461D01*
X91212Y-55461D01*
X91198Y-55461D01*
X91186Y-55460D01*
X91176Y-55459D01*
X91171Y-55458D01*
X91170Y-55458D01*
X91163Y-55451D01*
X91159Y-55441D01*
X91159Y-55434D01*
X91161Y-55422D01*
X91167Y-55413D01*
X91177Y-55408D01*
X91185Y-55407D01*
X91188Y-55407D01*
X91190Y-55406D01*
X91191Y-55403D01*
X91191Y-55396D01*
X91191Y-55386D01*
X91191Y-55381D01*
X91191Y-55369D01*
X91190Y-55358D01*
X91189Y-55350D01*
X91189Y-55347D01*
X91187Y-55344D01*
X91185Y-55342D01*
X91182Y-55341D01*
X91175Y-55341D01*
X91165Y-55340D01*
X91159Y-55340D01*
X91147Y-55340D01*
X91209Y-55340D01*
X91211Y-55346D01*
X91212Y-55357D01*
X91213Y-55372D01*
X91213Y-55384D01*
X91213Y-55397D01*
X91212Y-55405D01*
X91211Y-55411D01*
X91210Y-55415D01*
X91207Y-55419D01*
X91205Y-55421D01*
X91196Y-55427D01*
X91189Y-55429D01*
X91183Y-55429D01*
X91181Y-55433D01*
X91181Y-55434D01*
X91181Y-55436D01*
X91184Y-55438D01*
X91189Y-55439D01*
X91199Y-55440D01*
X91205Y-55440D01*
X91224Y-55441D01*
X91239Y-55440D01*
X91249Y-55438D01*
X91252Y-55436D01*
X91254Y-55433D01*
X91255Y-55426D01*
X91255Y-55416D01*
X91256Y-55400D01*
X91256Y-55393D01*
X91256Y-55375D01*
X91256Y-55362D01*
X91258Y-55352D01*
X91260Y-55345D01*
X91264Y-55340D01*
X91270Y-55335D01*
X91274Y-55333D01*
X91282Y-55330D01*
X91294Y-55328D01*
X91309Y-55325D01*
X91328Y-55324D01*
X91347Y-55322D01*
X91368Y-55321D01*
X91388Y-55321D01*
X91407Y-55321D01*
X91424Y-55321D01*
X91437Y-55322D01*
X91447Y-55324D01*
X91460Y-55330D01*
X91472Y-55340D01*
X91482Y-55351D01*
X91489Y-55364D01*
X91490Y-55368D01*
X91492Y-55375D01*
X91493Y-55387D01*
X91493Y-55402D01*
X91494Y-55418D01*
X91494Y-55434D01*
X91493Y-55451D01*
X91493Y-55465D01*
X91492Y-55478D01*
X91491Y-55486D01*
X91490Y-55489D01*
X91484Y-55497D01*
X91475Y-55507D01*
X91464Y-55515D01*
X91453Y-55521D01*
X91449Y-55523D01*
X91440Y-55525D01*
X91429Y-55527D01*
X91415Y-55527D01*
X91401Y-55528D01*
X91388Y-55527D01*
X91377Y-55526D01*
X91370Y-55525D01*
X91370Y-55525D01*
X91364Y-55521D01*
X91360Y-55516D01*
X91358Y-55508D01*
X91357Y-55497D01*
X91358Y-55484D01*
X91358Y-55471D01*
X91359Y-55463D01*
X91360Y-55458D01*
X91362Y-55455D01*
X91366Y-55451D01*
X91366Y-55451D01*
X91373Y-55447D01*
X91383Y-55444D01*
X91385Y-55443D01*
X91395Y-55441D01*
X91400Y-55438D01*
X91403Y-55434D01*
X91403Y-55427D01*
X91402Y-55419D01*
X91399Y-55412D01*
X91393Y-55409D01*
X91383Y-55406D01*
X91368Y-55405D01*
X91366Y-55405D01*
X91353Y-55405D01*
X91345Y-55405D01*
X91340Y-55406D01*
X91338Y-55408D01*
X91337Y-55411D01*
X91337Y-55420D01*
X91336Y-55431D01*
X91336Y-55444D01*
X91336Y-55448D01*
X91336Y-55463D01*
X91336Y-55473D01*
X91336Y-55481D01*
X91334Y-55486D01*
X91333Y-55491D01*
X91330Y-55496D01*
X91329Y-55497D01*
X91323Y-55506D01*
X91316Y-55514D01*
X91308Y-55519D01*
X91298Y-55524D01*
X91286Y-55527D01*
X91271Y-55529D01*
X91252Y-55529D01*
X91230Y-55529D01*
X91205Y-55529D01*
X91183Y-55528D01*
X91165Y-55527D01*
X91152Y-55526D01*
X91141Y-55525D01*
X91133Y-55523D01*
X91127Y-55521D01*
X91121Y-55518D01*
X91117Y-55515D01*
X91112Y-55510D01*
X91107Y-55506D01*
X91104Y-55500D01*
X91102Y-55493D01*
X91100Y-55484D01*
X91099Y-55472D01*
X91098Y-55457D01*
X91098Y-55437D01*
X91098Y-55418D01*
X91098Y-55396D01*
X91098Y-55378D01*
X91099Y-55364D01*
X91100Y-55353D01*
X91101Y-55345D01*
X91103Y-55339D01*
X91106Y-55334D01*
X91109Y-55330D01*
X91112Y-55327D01*
X91116Y-55324D01*
X91119Y-55322D01*
X91124Y-55321D01*
X91130Y-55320D01*
X91141Y-55320D01*
X91155Y-55319D01*
X91157Y-55319D01*
X91194Y-55319D01*
X91194Y-55319D01*
X91194Y-55319D01*
G37*
G36*
X90861Y-53993D02*
X90874Y-53994D01*
X90885Y-53995D01*
X90895Y-53996D01*
X90898Y-53997D01*
X90930Y-54004D01*
X90964Y-54016D01*
X90997Y-54031D01*
X90821Y-54031D01*
X90799Y-54031D01*
X90784Y-54033D01*
X90760Y-54037D01*
X90740Y-54045D01*
X90724Y-54056D01*
X90710Y-54070D01*
X90698Y-54090D01*
X90695Y-54095D01*
X90687Y-54114D01*
X90682Y-54133D01*
X90679Y-54153D01*
X90679Y-54175D01*
X90681Y-54200D01*
X90685Y-54221D01*
X90687Y-54229D01*
X90690Y-54241D01*
X90693Y-54253D01*
X90697Y-54267D01*
X90701Y-54280D01*
X90705Y-54291D01*
X90708Y-54299D01*
X90710Y-54304D01*
X90711Y-54304D01*
X90713Y-54304D01*
X90721Y-54304D01*
X90733Y-54303D01*
X90748Y-54301D01*
X90767Y-54299D01*
X90788Y-54297D01*
X90812Y-54295D01*
X90837Y-54292D01*
X90863Y-54289D01*
X90889Y-54286D01*
X90916Y-54283D01*
X90942Y-54281D01*
X90966Y-54278D01*
X90990Y-54275D01*
X91004Y-54274D01*
X91041Y-54269D01*
X91074Y-54265D01*
X91102Y-54261D01*
X91125Y-54258D01*
X91144Y-54255D01*
X91158Y-54253D01*
X91166Y-54251D01*
X91166Y-54251D01*
X91181Y-54245D01*
X91190Y-54239D01*
X91194Y-54231D01*
X91192Y-54222D01*
X91186Y-54211D01*
X91185Y-54209D01*
X91180Y-54203D01*
X91171Y-54194D01*
X91161Y-54184D01*
X91150Y-54174D01*
X91147Y-54172D01*
X91135Y-54161D01*
X91122Y-54150D01*
X91110Y-54140D01*
X91101Y-54131D01*
X91101Y-54131D01*
X91071Y-54107D01*
X91038Y-54086D01*
X91001Y-54068D01*
X90962Y-54052D01*
X90921Y-54040D01*
X90910Y-54038D01*
X90891Y-54035D01*
X90869Y-54032D01*
X90845Y-54031D01*
X90821Y-54031D01*
X90997Y-54031D01*
X90999Y-54031D01*
X91034Y-54049D01*
X91068Y-54069D01*
X91102Y-54092D01*
X91133Y-54115D01*
X91162Y-54140D01*
X91187Y-54165D01*
X91208Y-54190D01*
X91215Y-54200D01*
X91229Y-54220D01*
X91229Y-54243D01*
X91229Y-54265D01*
X91164Y-54283D01*
X91121Y-54295D01*
X91081Y-54306D01*
X91043Y-54315D01*
X91007Y-54324D01*
X90971Y-54332D01*
X90934Y-54340D01*
X90895Y-54348D01*
X90853Y-54356D01*
X90822Y-54362D01*
X90790Y-54367D01*
X90763Y-54372D01*
X90740Y-54376D01*
X90722Y-54378D01*
X90706Y-54380D01*
X90694Y-54380D01*
X90685Y-54380D01*
X90678Y-54378D01*
X90673Y-54376D01*
X90671Y-54375D01*
X90665Y-54367D01*
X90659Y-54355D01*
X90652Y-54340D01*
X90646Y-54321D01*
X90640Y-54300D01*
X90635Y-54277D01*
X90631Y-54254D01*
X90628Y-54230D01*
X90627Y-54222D01*
X90625Y-54196D01*
X90626Y-54169D01*
X90628Y-54142D01*
X90632Y-54117D01*
X90638Y-54095D01*
X90645Y-54076D01*
X90648Y-54070D01*
X90661Y-54050D01*
X90680Y-54033D01*
X90703Y-54019D01*
X90730Y-54007D01*
X90762Y-53998D01*
X90762Y-53998D01*
X90769Y-53997D01*
X90781Y-53996D01*
X90795Y-53995D01*
X90811Y-53994D01*
X90825Y-53994D01*
X90845Y-53993D01*
X90861Y-53993D01*
X90861Y-53993D01*
X90861Y-53993D01*
G37*
G54D16*
X84607Y-52632D02*
X84607Y-52996D01*
X84628Y-53039D01*
X84650Y-53060D01*
X84692Y-53082D01*
X84778Y-53082D01*
X84821Y-53060D01*
X84842Y-53039D01*
X84864Y-52996D01*
X84864Y-52632D01*
X85314Y-53082D02*
X85057Y-53082D01*
X85185Y-53082D02*
X85185Y-52632D01*
X85142Y-52696D01*
X85100Y-52739D01*
X85057Y-52760D01*
X84607Y-58432D02*
X84607Y-58796D01*
X84628Y-58839D01*
X84650Y-58860D01*
X84692Y-58882D01*
X84778Y-58882D01*
X84821Y-58860D01*
X84842Y-58839D01*
X84864Y-58796D01*
X84864Y-58432D01*
X85057Y-58475D02*
X85078Y-58453D01*
X85121Y-58432D01*
X85228Y-58432D01*
X85271Y-58453D01*
X85292Y-58475D01*
X85314Y-58517D01*
X85314Y-58560D01*
X85292Y-58625D01*
X85035Y-58882D01*
X85314Y-58882D01*
G54D12*
X83121Y-53100D02*
X82978Y-53200D01*
X83121Y-53271D02*
X82821Y-53271D01*
X82821Y-53157D01*
X82835Y-53128D01*
X82850Y-53114D01*
X82878Y-53100D01*
X82921Y-53100D01*
X82950Y-53114D01*
X82964Y-53128D01*
X82978Y-53157D01*
X82978Y-53271D01*
X83121Y-52814D02*
X83121Y-52985D01*
X83121Y-52900D02*
X82821Y-52900D01*
X82864Y-52928D01*
X82892Y-52957D01*
X82907Y-52985D01*
X82671Y-56050D02*
X82528Y-56150D01*
X82671Y-56221D02*
X82371Y-56221D01*
X82371Y-56107D01*
X82385Y-56078D01*
X82400Y-56064D01*
X82428Y-56050D01*
X82471Y-56050D01*
X82500Y-56064D01*
X82514Y-56078D01*
X82528Y-56107D01*
X82528Y-56221D01*
X82471Y-55792D02*
X82671Y-55792D01*
X82357Y-55864D02*
X82571Y-55935D01*
X82571Y-55750D01*
X82600Y-58521D02*
X82500Y-58378D01*
X82428Y-58521D02*
X82428Y-58221D01*
X82542Y-58221D01*
X82571Y-58235D01*
X82585Y-58250D01*
X82600Y-58278D01*
X82600Y-58321D01*
X82585Y-58350D01*
X82571Y-58364D01*
X82542Y-58378D01*
X82428Y-58378D01*
X82857Y-58221D02*
X82800Y-58221D01*
X82771Y-58235D01*
X82757Y-58250D01*
X82728Y-58292D01*
X82714Y-58350D01*
X82714Y-58464D01*
X82728Y-58492D01*
X82742Y-58507D01*
X82771Y-58521D01*
X82828Y-58521D01*
X82857Y-58507D01*
X82871Y-58492D01*
X82885Y-58464D01*
X82885Y-58392D01*
X82871Y-58364D01*
X82857Y-58350D01*
X82828Y-58335D01*
X82771Y-58335D01*
X82742Y-58350D01*
X82728Y-58364D01*
X82714Y-58392D01*
G54D17*
X82817Y-51579D02*
X82751Y-51485D01*
X82704Y-51579D02*
X82704Y-51382D01*
X82779Y-51382D01*
X82798Y-51392D01*
X82807Y-51401D01*
X82817Y-51420D01*
X82817Y-51448D01*
X82807Y-51467D01*
X82798Y-51476D01*
X82779Y-51485D01*
X82704Y-51485D01*
X82892Y-51401D02*
X82901Y-51392D01*
X82920Y-51382D01*
X82967Y-51382D01*
X82986Y-51392D01*
X82995Y-51401D01*
X83004Y-51420D01*
X83004Y-51439D01*
X82995Y-51467D01*
X82882Y-51579D01*
X83004Y-51579D01*
X81567Y-53110D02*
X81557Y-53120D01*
X81529Y-53129D01*
X81510Y-53129D01*
X81482Y-53120D01*
X81463Y-53101D01*
X81454Y-53082D01*
X81445Y-53045D01*
X81445Y-53017D01*
X81454Y-52979D01*
X81463Y-52960D01*
X81482Y-52942D01*
X81510Y-52932D01*
X81529Y-52932D01*
X81557Y-52942D01*
X81567Y-52951D01*
X81754Y-53129D02*
X81642Y-53129D01*
X81698Y-53129D02*
X81698Y-52932D01*
X81679Y-52960D01*
X81660Y-52979D01*
X81642Y-52989D01*
X81567Y-54160D02*
X81557Y-54170D01*
X81529Y-54179D01*
X81510Y-54179D01*
X81482Y-54170D01*
X81463Y-54151D01*
X81454Y-54132D01*
X81445Y-54095D01*
X81445Y-54067D01*
X81454Y-54029D01*
X81463Y-54010D01*
X81482Y-53992D01*
X81510Y-53982D01*
X81529Y-53982D01*
X81557Y-53992D01*
X81567Y-54001D01*
X81642Y-54001D02*
X81651Y-53992D01*
X81670Y-53982D01*
X81717Y-53982D01*
X81736Y-53992D01*
X81745Y-54001D01*
X81754Y-54020D01*
X81754Y-54039D01*
X81745Y-54067D01*
X81632Y-54179D01*
X81754Y-54179D01*
X81129Y-57082D02*
X81035Y-57148D01*
X81129Y-57195D02*
X80932Y-57195D01*
X80932Y-57120D01*
X80942Y-57101D01*
X80951Y-57092D01*
X80970Y-57082D01*
X80998Y-57082D01*
X81017Y-57092D01*
X81026Y-57101D01*
X81035Y-57120D01*
X81035Y-57195D01*
X80932Y-56904D02*
X80932Y-56998D01*
X81026Y-57007D01*
X81017Y-56998D01*
X81007Y-56979D01*
X81007Y-56932D01*
X81017Y-56913D01*
X81026Y-56904D01*
X81045Y-56895D01*
X81092Y-56895D01*
X81110Y-56904D01*
X81120Y-56913D01*
X81129Y-56932D01*
X81129Y-56979D01*
X81120Y-56998D01*
X81110Y-57007D01*
X81017Y-51579D02*
X80951Y-51485D01*
X80904Y-51579D02*
X80904Y-51382D01*
X80979Y-51382D01*
X80998Y-51392D01*
X81007Y-51401D01*
X81017Y-51420D01*
X81017Y-51448D01*
X81007Y-51467D01*
X80998Y-51476D01*
X80979Y-51485D01*
X80904Y-51485D01*
X81082Y-51382D02*
X81204Y-51382D01*
X81139Y-51457D01*
X81167Y-51457D01*
X81186Y-51467D01*
X81195Y-51476D01*
X81204Y-51495D01*
X81204Y-51542D01*
X81195Y-51560D01*
X81186Y-51570D01*
X81167Y-51579D01*
X81110Y-51579D01*
X81092Y-51570D01*
X81082Y-51560D01*
X83017Y-59460D02*
X83007Y-59470D01*
X82979Y-59479D01*
X82960Y-59479D01*
X82932Y-59470D01*
X82913Y-59451D01*
X82904Y-59432D01*
X82895Y-59395D01*
X82895Y-59367D01*
X82904Y-59329D01*
X82913Y-59310D01*
X82932Y-59292D01*
X82960Y-59282D01*
X82979Y-59282D01*
X83007Y-59292D01*
X83017Y-59301D01*
X83195Y-59282D02*
X83101Y-59282D01*
X83092Y-59376D01*
X83101Y-59367D01*
X83120Y-59357D01*
X83167Y-59357D01*
X83186Y-59367D01*
X83195Y-59376D01*
X83204Y-59395D01*
X83204Y-59442D01*
X83195Y-59460D01*
X83186Y-59470D01*
X83167Y-59479D01*
X83120Y-59479D01*
X83101Y-59470D01*
X83092Y-59460D01*
X79710Y-53732D02*
X79720Y-53742D01*
X79729Y-53770D01*
X79729Y-53789D01*
X79720Y-53817D01*
X79701Y-53836D01*
X79682Y-53845D01*
X79645Y-53854D01*
X79617Y-53854D01*
X79579Y-53845D01*
X79560Y-53836D01*
X79542Y-53817D01*
X79532Y-53789D01*
X79532Y-53770D01*
X79542Y-53742D01*
X79551Y-53732D01*
X79598Y-53563D02*
X79729Y-53563D01*
X79523Y-53610D02*
X79664Y-53657D01*
X79664Y-53535D01*
X79710Y-51932D02*
X79720Y-51942D01*
X79729Y-51970D01*
X79729Y-51989D01*
X79720Y-52017D01*
X79701Y-52036D01*
X79682Y-52045D01*
X79645Y-52054D01*
X79617Y-52054D01*
X79579Y-52045D01*
X79560Y-52036D01*
X79542Y-52017D01*
X79532Y-51989D01*
X79532Y-51970D01*
X79542Y-51942D01*
X79551Y-51932D01*
X79532Y-51867D02*
X79532Y-51745D01*
X79607Y-51810D01*
X79607Y-51782D01*
X79617Y-51763D01*
X79626Y-51754D01*
X79645Y-51745D01*
X79692Y-51745D01*
X79710Y-51754D01*
X79720Y-51763D01*
X79729Y-51782D01*
X79729Y-51839D01*
X79720Y-51857D01*
X79710Y-51867D01*
G54D18*
X74984Y-51755D02*
X74984Y-51074D01*
X75147Y-51074D01*
X75187Y-51107D01*
X75208Y-51139D01*
X75228Y-51204D01*
X75228Y-51301D01*
X75208Y-51366D01*
X75187Y-51398D01*
X75147Y-51431D01*
X74984Y-51431D01*
X75636Y-51755D02*
X75391Y-51755D01*
X75514Y-51755D02*
X75514Y-51074D01*
X75473Y-51171D01*
X75432Y-51236D01*
X75391Y-51269D01*
G54D14*
M02*
