G04 (created by PCBNEW (2013-07-07 BZR 4022)-stable) date 1/28/2014 11:43:37 AM*
%MOIN*%
G04 Gerber Fmt 3.4, Leading zero omitted, Abs format*
%FSLAX34Y34*%
G01*
G70*
G90*
G04 APERTURE LIST*
%ADD10C,0.00590551*%
%ADD11R,0.0236X0.0551*%
%ADD12R,0.08X0.06*%
%ADD13R,0.06X0.08*%
%ADD14R,0.035X0.055*%
%ADD15R,0.055X0.035*%
%ADD16R,0.055X0.055*%
%ADD17C,0.055*%
G04 APERTURE END LIST*
G54D10*
G54D11*
X85700Y-53600D03*
X85700Y-51500D03*
X85200Y-53600D03*
X84700Y-53600D03*
X84200Y-53600D03*
X85200Y-51500D03*
X84700Y-51500D03*
X84200Y-51500D03*
X85700Y-59400D03*
X85700Y-57300D03*
X85200Y-59400D03*
X84700Y-59400D03*
X84200Y-59400D03*
X85200Y-57300D03*
X84700Y-57300D03*
X84200Y-57300D03*
G54D12*
X83000Y-52400D03*
X83000Y-53700D03*
X82550Y-56650D03*
X82550Y-55350D03*
G54D13*
X82000Y-58400D03*
X83300Y-58400D03*
G54D14*
X83225Y-51500D03*
X82475Y-51500D03*
X81975Y-53050D03*
X81225Y-53050D03*
X81975Y-54100D03*
X81225Y-54100D03*
G54D15*
X81050Y-57425D03*
X81050Y-56675D03*
G54D14*
X81425Y-51500D03*
X80675Y-51500D03*
X82675Y-59400D03*
X83425Y-59400D03*
G54D15*
X79650Y-53325D03*
X79650Y-54075D03*
X79650Y-51525D03*
X79650Y-52275D03*
G54D16*
X85950Y-55450D03*
G54D17*
X84950Y-55450D03*
X83950Y-55450D03*
G54D16*
X75300Y-58450D03*
G54D17*
X75300Y-57450D03*
X75300Y-56450D03*
X75300Y-55450D03*
X75300Y-54450D03*
X75300Y-53450D03*
X75300Y-52450D03*
M02*
