G04 (created by PCBNEW (2013-07-07 BZR 4022)-stable) date 1/27/2014 8:08:51 PM*
%MOIN*%
G04 Gerber Fmt 3.4, Leading zero omitted, Abs format*
%FSLAX34Y34*%
G01*
G70*
G90*
G04 APERTURE LIST*
%ADD10C,0.00590551*%
%ADD11R,0.055X0.055*%
%ADD12C,0.055*%
%ADD13R,0.055X0.035*%
%ADD14R,0.35X0.42*%
%ADD15R,0.09X0.07*%
%ADD16C,0.02*%
%ADD17C,0.035*%
%ADD18C,0.006*%
%ADD19C,0.01*%
G04 APERTURE END LIST*
G54D10*
G54D11*
X85950Y-55450D03*
G54D12*
X84950Y-55450D03*
X83950Y-55450D03*
G54D13*
X87950Y-57375D03*
X87950Y-58125D03*
X87950Y-53525D03*
X87950Y-52775D03*
G54D14*
X91400Y-55450D03*
G54D15*
X87950Y-55450D03*
X87950Y-56450D03*
X87950Y-54450D03*
G54D11*
X77790Y-58450D03*
G54D12*
X77790Y-57450D03*
X77790Y-56450D03*
X77790Y-55450D03*
X77790Y-54450D03*
X77790Y-53450D03*
X77790Y-52450D03*
G54D16*
X78885Y-56235D03*
X81300Y-59450D03*
X80500Y-52600D03*
G54D17*
X86750Y-52650D03*
G54D16*
X85500Y-54450D03*
X85500Y-52350D03*
G54D17*
X86700Y-54050D03*
G54D16*
X82530Y-57510D03*
X78900Y-56795D03*
G54D18*
X85500Y-52350D02*
X85500Y-54450D01*
G54D19*
X87950Y-54450D02*
X87100Y-54450D01*
X87100Y-54450D02*
X86700Y-54050D01*
X87950Y-54450D02*
X87950Y-53525D01*
G54D18*
X82505Y-57510D02*
X82530Y-57510D01*
X81295Y-56300D02*
X82505Y-57510D01*
X79395Y-56300D02*
X81295Y-56300D01*
X78900Y-56795D02*
X79395Y-56300D01*
G54D19*
X87950Y-56450D02*
X86350Y-56450D01*
X85950Y-56050D02*
X85950Y-55450D01*
X86350Y-56450D02*
X85950Y-56050D01*
X87950Y-57375D02*
X87950Y-56450D01*
G54D10*
G36*
X93470Y-60170D02*
X93400Y-60170D01*
X93400Y-57599D01*
X93400Y-53300D01*
X93362Y-53208D01*
X93291Y-53138D01*
X93199Y-53100D01*
X93100Y-53099D01*
X91512Y-53100D01*
X91450Y-53162D01*
X91450Y-55400D01*
X93337Y-55400D01*
X93400Y-55337D01*
X93400Y-53300D01*
X93400Y-57599D01*
X93400Y-55562D01*
X93337Y-55500D01*
X91450Y-55500D01*
X91450Y-57737D01*
X91512Y-57800D01*
X93100Y-57800D01*
X93199Y-57799D01*
X93291Y-57761D01*
X93362Y-57691D01*
X93400Y-57599D01*
X93400Y-60170D01*
X91350Y-60170D01*
X91350Y-57737D01*
X91350Y-55500D01*
X91350Y-55400D01*
X91350Y-53162D01*
X91287Y-53100D01*
X89699Y-53099D01*
X89600Y-53100D01*
X89508Y-53138D01*
X89437Y-53208D01*
X89399Y-53300D01*
X89400Y-55337D01*
X89462Y-55400D01*
X91350Y-55400D01*
X91350Y-55500D01*
X89462Y-55500D01*
X89400Y-55562D01*
X89399Y-57599D01*
X89437Y-57691D01*
X89508Y-57761D01*
X89600Y-57799D01*
X89699Y-57800D01*
X91287Y-57800D01*
X91350Y-57737D01*
X91350Y-60170D01*
X88650Y-60170D01*
X88650Y-56750D01*
X88650Y-56050D01*
X88612Y-55958D01*
X88603Y-55950D01*
X88612Y-55941D01*
X88650Y-55849D01*
X88650Y-55050D01*
X88612Y-54958D01*
X88603Y-54950D01*
X88611Y-54941D01*
X88649Y-54849D01*
X88650Y-54750D01*
X88650Y-54050D01*
X88612Y-53958D01*
X88541Y-53888D01*
X88449Y-53850D01*
X88428Y-53850D01*
X88436Y-53841D01*
X88474Y-53749D01*
X88475Y-53650D01*
X88475Y-53300D01*
X88437Y-53208D01*
X88378Y-53150D01*
X88437Y-53091D01*
X88475Y-52999D01*
X88475Y-52550D01*
X88437Y-52458D01*
X88366Y-52388D01*
X88274Y-52350D01*
X88175Y-52349D01*
X88062Y-52350D01*
X88000Y-52412D01*
X88000Y-52725D01*
X88412Y-52725D01*
X88475Y-52662D01*
X88475Y-52550D01*
X88475Y-52999D01*
X88475Y-52887D01*
X88412Y-52825D01*
X88000Y-52825D01*
X88000Y-52832D01*
X87900Y-52832D01*
X87900Y-52825D01*
X87900Y-52725D01*
X87900Y-52412D01*
X87837Y-52350D01*
X87724Y-52349D01*
X87625Y-52350D01*
X87533Y-52388D01*
X87462Y-52458D01*
X87424Y-52550D01*
X87425Y-52662D01*
X87487Y-52725D01*
X87900Y-52725D01*
X87900Y-52825D01*
X87487Y-52825D01*
X87425Y-52887D01*
X87424Y-52999D01*
X87462Y-53091D01*
X87521Y-53150D01*
X87463Y-53208D01*
X87425Y-53300D01*
X87424Y-53399D01*
X87424Y-53749D01*
X87462Y-53841D01*
X87471Y-53849D01*
X87450Y-53849D01*
X87358Y-53887D01*
X87288Y-53958D01*
X87250Y-54050D01*
X87249Y-54149D01*
X87249Y-54150D01*
X87224Y-54150D01*
X87124Y-54050D01*
X87125Y-53965D01*
X87060Y-53809D01*
X86941Y-53689D01*
X86784Y-53625D01*
X86615Y-53624D01*
X86459Y-53689D01*
X86339Y-53808D01*
X86275Y-53965D01*
X86274Y-54134D01*
X86339Y-54290D01*
X86458Y-54410D01*
X86615Y-54474D01*
X86700Y-54475D01*
X86887Y-54662D01*
X86887Y-54662D01*
X86985Y-54727D01*
X87099Y-54749D01*
X87100Y-54750D01*
X87249Y-54750D01*
X87249Y-54849D01*
X87287Y-54941D01*
X87296Y-54950D01*
X87287Y-54958D01*
X87249Y-55050D01*
X87250Y-55337D01*
X87312Y-55400D01*
X87900Y-55400D01*
X87900Y-55392D01*
X88000Y-55392D01*
X88000Y-55400D01*
X88587Y-55400D01*
X88650Y-55337D01*
X88650Y-55050D01*
X88650Y-55849D01*
X88650Y-55562D01*
X88587Y-55500D01*
X88000Y-55500D01*
X88000Y-55507D01*
X87900Y-55507D01*
X87900Y-55500D01*
X87312Y-55500D01*
X87250Y-55562D01*
X87249Y-55849D01*
X87287Y-55941D01*
X87296Y-55949D01*
X87288Y-55958D01*
X87250Y-56050D01*
X87249Y-56149D01*
X87249Y-56150D01*
X86474Y-56150D01*
X86292Y-55967D01*
X86366Y-55937D01*
X86436Y-55866D01*
X86474Y-55774D01*
X86475Y-55675D01*
X86475Y-55125D01*
X86437Y-55033D01*
X86366Y-54963D01*
X86274Y-54925D01*
X86175Y-54924D01*
X85850Y-54924D01*
X85850Y-54380D01*
X85796Y-54252D01*
X85780Y-54235D01*
X85780Y-52565D01*
X85796Y-52548D01*
X85849Y-52419D01*
X85850Y-52280D01*
X85796Y-52152D01*
X85698Y-52053D01*
X85569Y-52000D01*
X85430Y-51999D01*
X85302Y-52053D01*
X85203Y-52151D01*
X85150Y-52280D01*
X85149Y-52419D01*
X85203Y-52548D01*
X85220Y-52564D01*
X85220Y-54234D01*
X85203Y-54251D01*
X85150Y-54380D01*
X85149Y-54519D01*
X85203Y-54648D01*
X85301Y-54746D01*
X85430Y-54799D01*
X85569Y-54800D01*
X85698Y-54746D01*
X85796Y-54648D01*
X85849Y-54519D01*
X85850Y-54380D01*
X85850Y-54924D01*
X85625Y-54924D01*
X85533Y-54962D01*
X85463Y-55033D01*
X85425Y-55125D01*
X85424Y-55212D01*
X85410Y-55177D01*
X85317Y-55152D01*
X85247Y-55223D01*
X85247Y-55082D01*
X85222Y-54989D01*
X85025Y-54920D01*
X84817Y-54931D01*
X84677Y-54989D01*
X84652Y-55082D01*
X84950Y-55379D01*
X85247Y-55082D01*
X85247Y-55223D01*
X85020Y-55450D01*
X85317Y-55747D01*
X85410Y-55722D01*
X85424Y-55681D01*
X85424Y-55774D01*
X85462Y-55866D01*
X85533Y-55936D01*
X85625Y-55974D01*
X85650Y-55974D01*
X85650Y-56050D01*
X85672Y-56164D01*
X85737Y-56262D01*
X86137Y-56662D01*
X86137Y-56662D01*
X86235Y-56727D01*
X86349Y-56749D01*
X86350Y-56750D01*
X87249Y-56750D01*
X87249Y-56849D01*
X87287Y-56941D01*
X87358Y-57011D01*
X87450Y-57049D01*
X87471Y-57049D01*
X87463Y-57058D01*
X87425Y-57150D01*
X87424Y-57249D01*
X87424Y-57599D01*
X87462Y-57691D01*
X87521Y-57750D01*
X87462Y-57808D01*
X87424Y-57900D01*
X87425Y-58012D01*
X87487Y-58075D01*
X87900Y-58075D01*
X87900Y-58067D01*
X88000Y-58067D01*
X88000Y-58075D01*
X88412Y-58075D01*
X88475Y-58012D01*
X88475Y-57900D01*
X88437Y-57808D01*
X88378Y-57749D01*
X88436Y-57691D01*
X88474Y-57599D01*
X88475Y-57500D01*
X88475Y-57150D01*
X88437Y-57058D01*
X88428Y-57050D01*
X88449Y-57050D01*
X88541Y-57012D01*
X88611Y-56941D01*
X88649Y-56849D01*
X88650Y-56750D01*
X88650Y-60170D01*
X88475Y-60170D01*
X88475Y-58349D01*
X88475Y-58237D01*
X88412Y-58175D01*
X88000Y-58175D01*
X88000Y-58487D01*
X88062Y-58550D01*
X88175Y-58550D01*
X88274Y-58549D01*
X88366Y-58511D01*
X88437Y-58441D01*
X88475Y-58349D01*
X88475Y-60170D01*
X87900Y-60170D01*
X87900Y-58487D01*
X87900Y-58175D01*
X87487Y-58175D01*
X87425Y-58237D01*
X87424Y-58349D01*
X87462Y-58441D01*
X87533Y-58511D01*
X87625Y-58549D01*
X87724Y-58550D01*
X87837Y-58550D01*
X87900Y-58487D01*
X87900Y-60170D01*
X85247Y-60170D01*
X85247Y-55817D01*
X84950Y-55520D01*
X84879Y-55591D01*
X84879Y-55450D01*
X84582Y-55152D01*
X84489Y-55177D01*
X84450Y-55287D01*
X84395Y-55153D01*
X84247Y-55005D01*
X84054Y-54925D01*
X83846Y-54924D01*
X83653Y-55004D01*
X83505Y-55152D01*
X83425Y-55345D01*
X83424Y-55553D01*
X83504Y-55747D01*
X83652Y-55894D01*
X83845Y-55974D01*
X84053Y-55975D01*
X84247Y-55895D01*
X84394Y-55747D01*
X84447Y-55621D01*
X84489Y-55722D01*
X84582Y-55747D01*
X84879Y-55450D01*
X84879Y-55591D01*
X84652Y-55817D01*
X84677Y-55910D01*
X84874Y-55979D01*
X85082Y-55968D01*
X85222Y-55910D01*
X85247Y-55817D01*
X85247Y-60170D01*
X82880Y-60170D01*
X82880Y-57440D01*
X82826Y-57312D01*
X82728Y-57213D01*
X82599Y-57160D01*
X82550Y-57160D01*
X81492Y-56102D01*
X81402Y-56041D01*
X81295Y-56020D01*
X79395Y-56020D01*
X79287Y-56041D01*
X79257Y-56061D01*
X79197Y-56102D01*
X78854Y-56444D01*
X78830Y-56444D01*
X78702Y-56498D01*
X78603Y-56596D01*
X78550Y-56725D01*
X78549Y-56864D01*
X78603Y-56993D01*
X78701Y-57091D01*
X78830Y-57144D01*
X78969Y-57145D01*
X79098Y-57091D01*
X79196Y-56993D01*
X79249Y-56864D01*
X79249Y-56841D01*
X79510Y-56580D01*
X81179Y-56580D01*
X82181Y-57582D01*
X82233Y-57708D01*
X82331Y-57806D01*
X82460Y-57859D01*
X82599Y-57860D01*
X82728Y-57806D01*
X82826Y-57708D01*
X82879Y-57579D01*
X82880Y-57440D01*
X82880Y-60170D01*
X78319Y-60170D01*
X78319Y-56525D01*
X78315Y-56437D01*
X78315Y-55346D01*
X78235Y-55153D01*
X78087Y-55005D01*
X77954Y-54949D01*
X78087Y-54895D01*
X78234Y-54747D01*
X78314Y-54554D01*
X78315Y-54346D01*
X78235Y-54153D01*
X78087Y-54005D01*
X77954Y-53949D01*
X78087Y-53895D01*
X78234Y-53747D01*
X78314Y-53554D01*
X78315Y-53346D01*
X78235Y-53153D01*
X78087Y-53005D01*
X77954Y-52949D01*
X78087Y-52895D01*
X78234Y-52747D01*
X78314Y-52554D01*
X78315Y-52346D01*
X78235Y-52153D01*
X78087Y-52005D01*
X77894Y-51925D01*
X77686Y-51924D01*
X77493Y-52004D01*
X77345Y-52152D01*
X77265Y-52345D01*
X77264Y-52553D01*
X77344Y-52747D01*
X77492Y-52894D01*
X77625Y-52950D01*
X77493Y-53004D01*
X77345Y-53152D01*
X77265Y-53345D01*
X77264Y-53553D01*
X77344Y-53747D01*
X77492Y-53894D01*
X77625Y-53950D01*
X77493Y-54004D01*
X77345Y-54152D01*
X77265Y-54345D01*
X77264Y-54553D01*
X77344Y-54747D01*
X77492Y-54894D01*
X77625Y-54950D01*
X77493Y-55004D01*
X77345Y-55152D01*
X77265Y-55345D01*
X77264Y-55553D01*
X77344Y-55747D01*
X77492Y-55894D01*
X77618Y-55947D01*
X77517Y-55989D01*
X77492Y-56082D01*
X77790Y-56379D01*
X78087Y-56082D01*
X78062Y-55989D01*
X77952Y-55950D01*
X78087Y-55895D01*
X78234Y-55747D01*
X78314Y-55554D01*
X78315Y-55346D01*
X78315Y-56437D01*
X78308Y-56317D01*
X78250Y-56177D01*
X78157Y-56152D01*
X77860Y-56450D01*
X78157Y-56747D01*
X78250Y-56722D01*
X78319Y-56525D01*
X78319Y-60170D01*
X78315Y-60170D01*
X78315Y-57346D01*
X78235Y-57153D01*
X78087Y-57005D01*
X77961Y-56952D01*
X78062Y-56910D01*
X78087Y-56817D01*
X77790Y-56520D01*
X77719Y-56591D01*
X77719Y-56450D01*
X77422Y-56152D01*
X77329Y-56177D01*
X77260Y-56374D01*
X77271Y-56582D01*
X77329Y-56722D01*
X77422Y-56747D01*
X77719Y-56450D01*
X77719Y-56591D01*
X77492Y-56817D01*
X77517Y-56910D01*
X77627Y-56949D01*
X77493Y-57004D01*
X77345Y-57152D01*
X77265Y-57345D01*
X77264Y-57553D01*
X77344Y-57747D01*
X77492Y-57894D01*
X77564Y-57924D01*
X77465Y-57924D01*
X77373Y-57962D01*
X77303Y-58033D01*
X77265Y-58125D01*
X77264Y-58224D01*
X77264Y-58774D01*
X77302Y-58866D01*
X77373Y-58936D01*
X77465Y-58974D01*
X77564Y-58975D01*
X78114Y-58975D01*
X78206Y-58937D01*
X78276Y-58866D01*
X78314Y-58774D01*
X78315Y-58675D01*
X78315Y-58125D01*
X78277Y-58033D01*
X78206Y-57963D01*
X78114Y-57925D01*
X78015Y-57924D01*
X78015Y-57924D01*
X78087Y-57895D01*
X78234Y-57747D01*
X78314Y-57554D01*
X78315Y-57346D01*
X78315Y-60170D01*
X78250Y-60170D01*
X74029Y-60170D01*
X74029Y-50729D01*
X78250Y-50729D01*
X93470Y-50729D01*
X93470Y-60170D01*
X93470Y-60170D01*
G37*
G54D19*
X93470Y-60170D02*
X93400Y-60170D01*
X93400Y-57599D01*
X93400Y-53300D01*
X93362Y-53208D01*
X93291Y-53138D01*
X93199Y-53100D01*
X93100Y-53099D01*
X91512Y-53100D01*
X91450Y-53162D01*
X91450Y-55400D01*
X93337Y-55400D01*
X93400Y-55337D01*
X93400Y-53300D01*
X93400Y-57599D01*
X93400Y-55562D01*
X93337Y-55500D01*
X91450Y-55500D01*
X91450Y-57737D01*
X91512Y-57800D01*
X93100Y-57800D01*
X93199Y-57799D01*
X93291Y-57761D01*
X93362Y-57691D01*
X93400Y-57599D01*
X93400Y-60170D01*
X91350Y-60170D01*
X91350Y-57737D01*
X91350Y-55500D01*
X91350Y-55400D01*
X91350Y-53162D01*
X91287Y-53100D01*
X89699Y-53099D01*
X89600Y-53100D01*
X89508Y-53138D01*
X89437Y-53208D01*
X89399Y-53300D01*
X89400Y-55337D01*
X89462Y-55400D01*
X91350Y-55400D01*
X91350Y-55500D01*
X89462Y-55500D01*
X89400Y-55562D01*
X89399Y-57599D01*
X89437Y-57691D01*
X89508Y-57761D01*
X89600Y-57799D01*
X89699Y-57800D01*
X91287Y-57800D01*
X91350Y-57737D01*
X91350Y-60170D01*
X88650Y-60170D01*
X88650Y-56750D01*
X88650Y-56050D01*
X88612Y-55958D01*
X88603Y-55950D01*
X88612Y-55941D01*
X88650Y-55849D01*
X88650Y-55050D01*
X88612Y-54958D01*
X88603Y-54950D01*
X88611Y-54941D01*
X88649Y-54849D01*
X88650Y-54750D01*
X88650Y-54050D01*
X88612Y-53958D01*
X88541Y-53888D01*
X88449Y-53850D01*
X88428Y-53850D01*
X88436Y-53841D01*
X88474Y-53749D01*
X88475Y-53650D01*
X88475Y-53300D01*
X88437Y-53208D01*
X88378Y-53150D01*
X88437Y-53091D01*
X88475Y-52999D01*
X88475Y-52550D01*
X88437Y-52458D01*
X88366Y-52388D01*
X88274Y-52350D01*
X88175Y-52349D01*
X88062Y-52350D01*
X88000Y-52412D01*
X88000Y-52725D01*
X88412Y-52725D01*
X88475Y-52662D01*
X88475Y-52550D01*
X88475Y-52999D01*
X88475Y-52887D01*
X88412Y-52825D01*
X88000Y-52825D01*
X88000Y-52832D01*
X87900Y-52832D01*
X87900Y-52825D01*
X87900Y-52725D01*
X87900Y-52412D01*
X87837Y-52350D01*
X87724Y-52349D01*
X87625Y-52350D01*
X87533Y-52388D01*
X87462Y-52458D01*
X87424Y-52550D01*
X87425Y-52662D01*
X87487Y-52725D01*
X87900Y-52725D01*
X87900Y-52825D01*
X87487Y-52825D01*
X87425Y-52887D01*
X87424Y-52999D01*
X87462Y-53091D01*
X87521Y-53150D01*
X87463Y-53208D01*
X87425Y-53300D01*
X87424Y-53399D01*
X87424Y-53749D01*
X87462Y-53841D01*
X87471Y-53849D01*
X87450Y-53849D01*
X87358Y-53887D01*
X87288Y-53958D01*
X87250Y-54050D01*
X87249Y-54149D01*
X87249Y-54150D01*
X87224Y-54150D01*
X87124Y-54050D01*
X87125Y-53965D01*
X87060Y-53809D01*
X86941Y-53689D01*
X86784Y-53625D01*
X86615Y-53624D01*
X86459Y-53689D01*
X86339Y-53808D01*
X86275Y-53965D01*
X86274Y-54134D01*
X86339Y-54290D01*
X86458Y-54410D01*
X86615Y-54474D01*
X86700Y-54475D01*
X86887Y-54662D01*
X86887Y-54662D01*
X86985Y-54727D01*
X87099Y-54749D01*
X87100Y-54750D01*
X87249Y-54750D01*
X87249Y-54849D01*
X87287Y-54941D01*
X87296Y-54950D01*
X87287Y-54958D01*
X87249Y-55050D01*
X87250Y-55337D01*
X87312Y-55400D01*
X87900Y-55400D01*
X87900Y-55392D01*
X88000Y-55392D01*
X88000Y-55400D01*
X88587Y-55400D01*
X88650Y-55337D01*
X88650Y-55050D01*
X88650Y-55849D01*
X88650Y-55562D01*
X88587Y-55500D01*
X88000Y-55500D01*
X88000Y-55507D01*
X87900Y-55507D01*
X87900Y-55500D01*
X87312Y-55500D01*
X87250Y-55562D01*
X87249Y-55849D01*
X87287Y-55941D01*
X87296Y-55949D01*
X87288Y-55958D01*
X87250Y-56050D01*
X87249Y-56149D01*
X87249Y-56150D01*
X86474Y-56150D01*
X86292Y-55967D01*
X86366Y-55937D01*
X86436Y-55866D01*
X86474Y-55774D01*
X86475Y-55675D01*
X86475Y-55125D01*
X86437Y-55033D01*
X86366Y-54963D01*
X86274Y-54925D01*
X86175Y-54924D01*
X85850Y-54924D01*
X85850Y-54380D01*
X85796Y-54252D01*
X85780Y-54235D01*
X85780Y-52565D01*
X85796Y-52548D01*
X85849Y-52419D01*
X85850Y-52280D01*
X85796Y-52152D01*
X85698Y-52053D01*
X85569Y-52000D01*
X85430Y-51999D01*
X85302Y-52053D01*
X85203Y-52151D01*
X85150Y-52280D01*
X85149Y-52419D01*
X85203Y-52548D01*
X85220Y-52564D01*
X85220Y-54234D01*
X85203Y-54251D01*
X85150Y-54380D01*
X85149Y-54519D01*
X85203Y-54648D01*
X85301Y-54746D01*
X85430Y-54799D01*
X85569Y-54800D01*
X85698Y-54746D01*
X85796Y-54648D01*
X85849Y-54519D01*
X85850Y-54380D01*
X85850Y-54924D01*
X85625Y-54924D01*
X85533Y-54962D01*
X85463Y-55033D01*
X85425Y-55125D01*
X85424Y-55212D01*
X85410Y-55177D01*
X85317Y-55152D01*
X85247Y-55223D01*
X85247Y-55082D01*
X85222Y-54989D01*
X85025Y-54920D01*
X84817Y-54931D01*
X84677Y-54989D01*
X84652Y-55082D01*
X84950Y-55379D01*
X85247Y-55082D01*
X85247Y-55223D01*
X85020Y-55450D01*
X85317Y-55747D01*
X85410Y-55722D01*
X85424Y-55681D01*
X85424Y-55774D01*
X85462Y-55866D01*
X85533Y-55936D01*
X85625Y-55974D01*
X85650Y-55974D01*
X85650Y-56050D01*
X85672Y-56164D01*
X85737Y-56262D01*
X86137Y-56662D01*
X86137Y-56662D01*
X86235Y-56727D01*
X86349Y-56749D01*
X86350Y-56750D01*
X87249Y-56750D01*
X87249Y-56849D01*
X87287Y-56941D01*
X87358Y-57011D01*
X87450Y-57049D01*
X87471Y-57049D01*
X87463Y-57058D01*
X87425Y-57150D01*
X87424Y-57249D01*
X87424Y-57599D01*
X87462Y-57691D01*
X87521Y-57750D01*
X87462Y-57808D01*
X87424Y-57900D01*
X87425Y-58012D01*
X87487Y-58075D01*
X87900Y-58075D01*
X87900Y-58067D01*
X88000Y-58067D01*
X88000Y-58075D01*
X88412Y-58075D01*
X88475Y-58012D01*
X88475Y-57900D01*
X88437Y-57808D01*
X88378Y-57749D01*
X88436Y-57691D01*
X88474Y-57599D01*
X88475Y-57500D01*
X88475Y-57150D01*
X88437Y-57058D01*
X88428Y-57050D01*
X88449Y-57050D01*
X88541Y-57012D01*
X88611Y-56941D01*
X88649Y-56849D01*
X88650Y-56750D01*
X88650Y-60170D01*
X88475Y-60170D01*
X88475Y-58349D01*
X88475Y-58237D01*
X88412Y-58175D01*
X88000Y-58175D01*
X88000Y-58487D01*
X88062Y-58550D01*
X88175Y-58550D01*
X88274Y-58549D01*
X88366Y-58511D01*
X88437Y-58441D01*
X88475Y-58349D01*
X88475Y-60170D01*
X87900Y-60170D01*
X87900Y-58487D01*
X87900Y-58175D01*
X87487Y-58175D01*
X87425Y-58237D01*
X87424Y-58349D01*
X87462Y-58441D01*
X87533Y-58511D01*
X87625Y-58549D01*
X87724Y-58550D01*
X87837Y-58550D01*
X87900Y-58487D01*
X87900Y-60170D01*
X85247Y-60170D01*
X85247Y-55817D01*
X84950Y-55520D01*
X84879Y-55591D01*
X84879Y-55450D01*
X84582Y-55152D01*
X84489Y-55177D01*
X84450Y-55287D01*
X84395Y-55153D01*
X84247Y-55005D01*
X84054Y-54925D01*
X83846Y-54924D01*
X83653Y-55004D01*
X83505Y-55152D01*
X83425Y-55345D01*
X83424Y-55553D01*
X83504Y-55747D01*
X83652Y-55894D01*
X83845Y-55974D01*
X84053Y-55975D01*
X84247Y-55895D01*
X84394Y-55747D01*
X84447Y-55621D01*
X84489Y-55722D01*
X84582Y-55747D01*
X84879Y-55450D01*
X84879Y-55591D01*
X84652Y-55817D01*
X84677Y-55910D01*
X84874Y-55979D01*
X85082Y-55968D01*
X85222Y-55910D01*
X85247Y-55817D01*
X85247Y-60170D01*
X82880Y-60170D01*
X82880Y-57440D01*
X82826Y-57312D01*
X82728Y-57213D01*
X82599Y-57160D01*
X82550Y-57160D01*
X81492Y-56102D01*
X81402Y-56041D01*
X81295Y-56020D01*
X79395Y-56020D01*
X79287Y-56041D01*
X79257Y-56061D01*
X79197Y-56102D01*
X78854Y-56444D01*
X78830Y-56444D01*
X78702Y-56498D01*
X78603Y-56596D01*
X78550Y-56725D01*
X78549Y-56864D01*
X78603Y-56993D01*
X78701Y-57091D01*
X78830Y-57144D01*
X78969Y-57145D01*
X79098Y-57091D01*
X79196Y-56993D01*
X79249Y-56864D01*
X79249Y-56841D01*
X79510Y-56580D01*
X81179Y-56580D01*
X82181Y-57582D01*
X82233Y-57708D01*
X82331Y-57806D01*
X82460Y-57859D01*
X82599Y-57860D01*
X82728Y-57806D01*
X82826Y-57708D01*
X82879Y-57579D01*
X82880Y-57440D01*
X82880Y-60170D01*
X78319Y-60170D01*
X78319Y-56525D01*
X78315Y-56437D01*
X78315Y-55346D01*
X78235Y-55153D01*
X78087Y-55005D01*
X77954Y-54949D01*
X78087Y-54895D01*
X78234Y-54747D01*
X78314Y-54554D01*
X78315Y-54346D01*
X78235Y-54153D01*
X78087Y-54005D01*
X77954Y-53949D01*
X78087Y-53895D01*
X78234Y-53747D01*
X78314Y-53554D01*
X78315Y-53346D01*
X78235Y-53153D01*
X78087Y-53005D01*
X77954Y-52949D01*
X78087Y-52895D01*
X78234Y-52747D01*
X78314Y-52554D01*
X78315Y-52346D01*
X78235Y-52153D01*
X78087Y-52005D01*
X77894Y-51925D01*
X77686Y-51924D01*
X77493Y-52004D01*
X77345Y-52152D01*
X77265Y-52345D01*
X77264Y-52553D01*
X77344Y-52747D01*
X77492Y-52894D01*
X77625Y-52950D01*
X77493Y-53004D01*
X77345Y-53152D01*
X77265Y-53345D01*
X77264Y-53553D01*
X77344Y-53747D01*
X77492Y-53894D01*
X77625Y-53950D01*
X77493Y-54004D01*
X77345Y-54152D01*
X77265Y-54345D01*
X77264Y-54553D01*
X77344Y-54747D01*
X77492Y-54894D01*
X77625Y-54950D01*
X77493Y-55004D01*
X77345Y-55152D01*
X77265Y-55345D01*
X77264Y-55553D01*
X77344Y-55747D01*
X77492Y-55894D01*
X77618Y-55947D01*
X77517Y-55989D01*
X77492Y-56082D01*
X77790Y-56379D01*
X78087Y-56082D01*
X78062Y-55989D01*
X77952Y-55950D01*
X78087Y-55895D01*
X78234Y-55747D01*
X78314Y-55554D01*
X78315Y-55346D01*
X78315Y-56437D01*
X78308Y-56317D01*
X78250Y-56177D01*
X78157Y-56152D01*
X77860Y-56450D01*
X78157Y-56747D01*
X78250Y-56722D01*
X78319Y-56525D01*
X78319Y-60170D01*
X78315Y-60170D01*
X78315Y-57346D01*
X78235Y-57153D01*
X78087Y-57005D01*
X77961Y-56952D01*
X78062Y-56910D01*
X78087Y-56817D01*
X77790Y-56520D01*
X77719Y-56591D01*
X77719Y-56450D01*
X77422Y-56152D01*
X77329Y-56177D01*
X77260Y-56374D01*
X77271Y-56582D01*
X77329Y-56722D01*
X77422Y-56747D01*
X77719Y-56450D01*
X77719Y-56591D01*
X77492Y-56817D01*
X77517Y-56910D01*
X77627Y-56949D01*
X77493Y-57004D01*
X77345Y-57152D01*
X77265Y-57345D01*
X77264Y-57553D01*
X77344Y-57747D01*
X77492Y-57894D01*
X77564Y-57924D01*
X77465Y-57924D01*
X77373Y-57962D01*
X77303Y-58033D01*
X77265Y-58125D01*
X77264Y-58224D01*
X77264Y-58774D01*
X77302Y-58866D01*
X77373Y-58936D01*
X77465Y-58974D01*
X77564Y-58975D01*
X78114Y-58975D01*
X78206Y-58937D01*
X78276Y-58866D01*
X78314Y-58774D01*
X78315Y-58675D01*
X78315Y-58125D01*
X78277Y-58033D01*
X78206Y-57963D01*
X78114Y-57925D01*
X78015Y-57924D01*
X78015Y-57924D01*
X78087Y-57895D01*
X78234Y-57747D01*
X78314Y-57554D01*
X78315Y-57346D01*
X78315Y-60170D01*
X78250Y-60170D01*
X74029Y-60170D01*
X74029Y-50729D01*
X78250Y-50729D01*
X93470Y-50729D01*
X93470Y-60170D01*
M02*
